<svg width="452" height="388" viewBox="0 0 452 388" fill="none" xmlns="http://www.w3.org/2000/svg">
<rect width="452" height="388" fill="white"/>
<rect x="59" y="58" width="343" height="314" fill="#D9D9D9"/>
<rect x="87" y="79" width="124" height="73" fill="#393838"/>
<rect x="250" y="79" width="124" height="73" fill="#393838"/>
<rect x="250" y="178" width="124" height="73" fill="#393838"/>
<rect x="250" y="277" width="124" height="73" fill="#393838"/>
<rect x="87" y="178" width="124" height="73" fill="#393838"/>
<rect x="87" y="277" width="124" height="73" fill="#393838"/>
<rect x="100" y="104" width="97" height="23" fill="#D9D9D9"/>
<rect x="263" y="104" width="97" height="23" fill="#D9D9D9"/>
<rect x="263" y="203" width="97" height="23" fill="#D9D9D9"/>
<rect x="263" y="302" width="97" height="23" fill="#D9D9D9"/>
<rect x="100" y="203" width="97" height="23" fill="#D9D9D9"/>
<rect x="100" y="302" width="97" height="23" fill="#D9D9D9"/>
<path d="M103.585 113.182V119H102.88V113.182H103.585ZM107.998 115.614L107.395 115.784C107.357 115.684 107.301 115.586 107.228 115.491C107.156 115.395 107.057 115.315 106.932 115.253C106.807 115.19 106.647 115.159 106.452 115.159C106.185 115.159 105.962 115.221 105.784 115.344C105.608 115.465 105.52 115.619 105.52 115.807C105.52 115.973 105.581 116.105 105.702 116.202C105.823 116.298 106.013 116.379 106.27 116.443L106.918 116.602C107.308 116.697 107.599 116.842 107.79 117.037C107.981 117.23 108.077 117.479 108.077 117.784C108.077 118.034 108.005 118.258 107.861 118.455C107.719 118.652 107.52 118.807 107.265 118.92C107.009 119.034 106.712 119.091 106.373 119.091C105.927 119.091 105.559 118.994 105.267 118.801C104.976 118.608 104.791 118.326 104.713 117.955L105.35 117.795C105.41 118.03 105.525 118.206 105.694 118.324C105.864 118.441 106.087 118.5 106.361 118.5C106.674 118.5 106.922 118.434 107.105 118.301C107.291 118.167 107.384 118.006 107.384 117.818C107.384 117.667 107.331 117.54 107.225 117.438C107.119 117.333 106.956 117.256 106.736 117.205L106.009 117.034C105.609 116.939 105.316 116.793 105.128 116.594C104.943 116.393 104.85 116.142 104.85 115.841C104.85 115.595 104.919 115.377 105.057 115.188C105.197 114.998 105.388 114.849 105.628 114.741C105.871 114.634 106.145 114.58 106.452 114.58C106.884 114.58 107.223 114.674 107.469 114.864C107.717 115.053 107.893 115.303 107.998 115.614ZM110.37 119.102C110.094 119.102 109.843 119.05 109.618 118.946C109.392 118.84 109.213 118.688 109.081 118.489C108.948 118.288 108.882 118.045 108.882 117.761C108.882 117.511 108.931 117.309 109.029 117.153C109.128 116.996 109.26 116.873 109.424 116.784C109.589 116.695 109.771 116.629 109.97 116.585C110.171 116.54 110.372 116.504 110.575 116.477C110.84 116.443 111.055 116.418 111.22 116.401C111.386 116.382 111.508 116.35 111.583 116.307C111.661 116.263 111.7 116.187 111.7 116.08V116.057C111.7 115.777 111.623 115.559 111.47 115.403C111.318 115.248 111.088 115.17 110.779 115.17C110.459 115.17 110.208 115.241 110.027 115.381C109.845 115.521 109.717 115.67 109.643 115.83L109.007 115.602C109.12 115.337 109.272 115.131 109.461 114.983C109.653 114.833 109.861 114.729 110.086 114.67C110.314 114.61 110.537 114.58 110.757 114.58C110.897 114.58 111.058 114.597 111.24 114.631C111.423 114.663 111.6 114.73 111.771 114.832C111.943 114.935 112.086 115.089 112.2 115.295C112.314 115.502 112.37 115.778 112.37 116.125V119H111.7V118.409H111.666C111.62 118.504 111.545 118.605 111.439 118.713C111.333 118.821 111.191 118.913 111.015 118.989C110.839 119.064 110.624 119.102 110.37 119.102ZM110.473 118.5C110.738 118.5 110.961 118.448 111.143 118.344C111.327 118.24 111.465 118.105 111.558 117.94C111.653 117.776 111.7 117.602 111.7 117.42V116.807C111.672 116.841 111.609 116.872 111.512 116.901C111.418 116.927 111.308 116.951 111.183 116.972C111.06 116.991 110.94 117.008 110.822 117.023C110.707 117.036 110.613 117.047 110.541 117.057C110.367 117.08 110.204 117.116 110.052 117.168C109.903 117.217 109.781 117.292 109.689 117.392C109.598 117.491 109.552 117.625 109.552 117.795C109.552 118.028 109.638 118.205 109.811 118.324C109.985 118.441 110.206 118.5 110.473 118.5ZM114.878 119.102C114.602 119.102 114.351 119.05 114.125 118.946C113.9 118.84 113.721 118.688 113.588 118.489C113.456 118.288 113.39 118.045 113.39 117.761C113.39 117.511 113.439 117.309 113.537 117.153C113.636 116.996 113.767 116.873 113.932 116.784C114.097 116.695 114.279 116.629 114.478 116.585C114.678 116.54 114.88 116.504 115.083 116.477C115.348 116.443 115.563 116.418 115.728 116.401C115.894 116.382 116.016 116.35 116.091 116.307C116.169 116.263 116.208 116.187 116.208 116.08V116.057C116.208 115.777 116.131 115.559 115.978 115.403C115.826 115.248 115.596 115.17 115.287 115.17C114.967 115.17 114.716 115.241 114.534 115.381C114.353 115.521 114.225 115.67 114.151 115.83L113.515 115.602C113.628 115.337 113.78 115.131 113.969 114.983C114.16 114.833 114.369 114.729 114.594 114.67C114.821 114.61 115.045 114.58 115.265 114.58C115.405 114.58 115.566 114.597 115.748 114.631C115.931 114.663 116.108 114.73 116.279 114.832C116.451 114.935 116.594 115.089 116.708 115.295C116.821 115.502 116.878 115.778 116.878 116.125V119H116.208V118.409H116.174C116.128 118.504 116.052 118.605 115.946 118.713C115.84 118.821 115.699 118.913 115.523 118.989C115.347 119.064 115.132 119.102 114.878 119.102ZM114.98 118.5C115.246 118.5 115.469 118.448 115.651 118.344C115.835 118.24 115.973 118.105 116.066 117.94C116.16 117.776 116.208 117.602 116.208 117.42V116.807C116.179 116.841 116.117 116.872 116.02 116.901C115.926 116.927 115.816 116.951 115.691 116.972C115.568 116.991 115.447 117.008 115.33 117.023C115.214 117.036 115.121 117.047 115.049 117.057C114.874 117.08 114.712 117.116 114.56 117.168C114.41 117.217 114.289 117.292 114.196 117.392C114.105 117.491 114.06 117.625 114.06 117.795C114.06 118.028 114.146 118.205 114.319 118.324C114.493 118.441 114.713 118.5 114.98 118.5ZM119.875 119.091C119.466 119.091 119.113 118.994 118.818 118.801C118.522 118.608 118.295 118.342 118.136 118.003C117.977 117.664 117.897 117.277 117.897 116.841C117.897 116.398 117.979 116.007 118.142 115.668C118.306 115.327 118.536 115.061 118.829 114.869C119.125 114.676 119.469 114.58 119.863 114.58C120.17 114.58 120.447 114.636 120.693 114.75C120.939 114.864 121.141 115.023 121.298 115.227C121.455 115.432 121.553 115.67 121.591 115.943H120.92C120.869 115.744 120.755 115.568 120.579 115.415C120.405 115.259 120.17 115.182 119.875 115.182C119.613 115.182 119.384 115.25 119.187 115.386C118.992 115.521 118.84 115.711 118.73 115.957C118.622 116.202 118.568 116.489 118.568 116.818C118.568 117.155 118.621 117.449 118.727 117.699C118.835 117.949 118.986 118.143 119.181 118.281C119.378 118.42 119.609 118.489 119.875 118.489C120.049 118.489 120.207 118.458 120.349 118.398C120.491 118.337 120.611 118.25 120.71 118.136C120.808 118.023 120.878 117.886 120.92 117.727H121.591C121.553 117.985 121.459 118.217 121.309 118.423C121.162 118.628 120.966 118.791 120.721 118.912C120.479 119.031 120.197 119.091 119.875 119.091ZM129.593 115H128.889C128.847 114.797 128.774 114.619 128.67 114.466C128.568 114.312 128.443 114.184 128.295 114.08C128.149 113.973 127.987 113.894 127.809 113.841C127.631 113.788 127.446 113.761 127.252 113.761C126.9 113.761 126.581 113.85 126.295 114.028C126.011 114.206 125.785 114.469 125.616 114.815C125.449 115.162 125.366 115.587 125.366 116.091C125.366 116.595 125.449 117.02 125.616 117.366C125.785 117.713 126.011 117.975 126.295 118.153C126.581 118.331 126.9 118.42 127.252 118.42C127.446 118.42 127.631 118.394 127.809 118.341C127.987 118.288 128.149 118.209 128.295 118.105C128.443 117.999 128.568 117.869 128.67 117.716C128.774 117.561 128.847 117.383 128.889 117.182H129.593C129.54 117.479 129.444 117.745 129.304 117.98C129.163 118.215 128.989 118.415 128.781 118.58C128.573 118.742 128.339 118.866 128.079 118.952C127.822 119.037 127.546 119.08 127.252 119.08C126.756 119.08 126.315 118.958 125.929 118.716C125.542 118.473 125.238 118.129 125.017 117.682C124.795 117.235 124.684 116.705 124.684 116.091C124.684 115.477 124.795 114.947 125.017 114.5C125.238 114.053 125.542 113.708 125.929 113.466C126.315 113.223 126.756 113.102 127.252 113.102C127.546 113.102 127.822 113.145 128.079 113.23C128.339 113.315 128.573 113.44 128.781 113.605C128.989 113.768 129.163 113.967 129.304 114.202C129.444 114.435 129.54 114.701 129.593 115ZM131.925 119.102C131.649 119.102 131.398 119.05 131.172 118.946C130.947 118.84 130.768 118.688 130.635 118.489C130.503 118.288 130.436 118.045 130.436 117.761C130.436 117.511 130.486 117.309 130.584 117.153C130.683 116.996 130.814 116.873 130.979 116.784C131.144 116.695 131.326 116.629 131.525 116.585C131.725 116.54 131.927 116.504 132.13 116.477C132.395 116.443 132.61 116.418 132.775 116.401C132.941 116.382 133.062 116.35 133.138 116.307C133.216 116.263 133.255 116.187 133.255 116.08V116.057C133.255 115.777 133.178 115.559 133.025 115.403C132.873 115.248 132.643 115.17 132.334 115.17C132.014 115.17 131.763 115.241 131.581 115.381C131.4 115.521 131.272 115.67 131.198 115.83L130.561 115.602C130.675 115.337 130.827 115.131 131.016 114.983C131.207 114.833 131.416 114.729 131.641 114.67C131.868 114.61 132.092 114.58 132.311 114.58C132.452 114.58 132.613 114.597 132.794 114.631C132.978 114.663 133.155 114.73 133.326 114.832C133.498 114.935 133.641 115.089 133.755 115.295C133.868 115.502 133.925 115.778 133.925 116.125V119H133.255V118.409H133.221C133.175 118.504 133.099 118.605 132.993 118.713C132.887 118.821 132.746 118.913 132.57 118.989C132.394 119.064 132.179 119.102 131.925 119.102ZM132.027 118.5C132.292 118.5 132.516 118.448 132.698 118.344C132.882 118.24 133.02 118.105 133.113 117.94C133.207 117.776 133.255 117.602 133.255 117.42V116.807C133.226 116.841 133.164 116.872 133.067 116.901C132.972 116.927 132.863 116.951 132.738 116.972C132.614 116.991 132.494 117.008 132.377 117.023C132.261 117.036 132.167 117.047 132.096 117.057C131.921 117.08 131.758 117.116 131.607 117.168C131.457 117.217 131.336 117.292 131.243 117.392C131.152 117.491 131.107 117.625 131.107 117.795C131.107 118.028 131.193 118.205 131.365 118.324C131.54 118.441 131.76 118.5 132.027 118.5ZM135.149 119V114.636H135.797V115.318H135.853C135.944 115.085 136.091 114.904 136.294 114.776C136.496 114.645 136.74 114.58 137.024 114.58C137.312 114.58 137.551 114.645 137.743 114.776C137.936 114.904 138.086 115.085 138.194 115.318H138.24C138.351 115.093 138.519 114.914 138.743 114.781C138.966 114.647 139.234 114.58 139.547 114.58C139.937 114.58 140.256 114.702 140.504 114.946C140.752 115.188 140.876 115.566 140.876 116.08V119H140.206V116.08C140.206 115.758 140.118 115.527 139.941 115.389C139.765 115.251 139.558 115.182 139.319 115.182C139.012 115.182 138.775 115.275 138.606 115.46C138.438 115.644 138.353 115.877 138.353 116.159V119H137.672V116.011C137.672 115.763 137.591 115.563 137.43 115.412C137.269 115.259 137.062 115.182 136.808 115.182C136.634 115.182 136.471 115.228 136.319 115.321C136.17 115.414 136.048 115.543 135.956 115.707C135.865 115.87 135.819 116.059 135.819 116.273V119H135.149ZM142.102 120.636V114.636H142.75V115.33H142.829C142.878 115.254 142.947 115.157 143.034 115.04C143.123 114.92 143.25 114.814 143.414 114.722C143.581 114.627 143.806 114.58 144.091 114.58C144.458 114.58 144.782 114.671 145.062 114.855C145.342 115.039 145.561 115.299 145.718 115.636C145.876 115.973 145.954 116.371 145.954 116.83C145.954 117.292 145.876 117.692 145.718 118.031C145.561 118.368 145.343 118.63 145.065 118.815C144.787 118.999 144.466 119.091 144.102 119.091C143.822 119.091 143.597 119.045 143.429 118.952C143.26 118.857 143.13 118.75 143.039 118.631C142.949 118.509 142.878 118.409 142.829 118.33H142.772V120.636H142.102ZM142.761 116.818C142.761 117.148 142.809 117.438 142.906 117.69C143.002 117.94 143.144 118.136 143.329 118.278C143.515 118.419 143.742 118.489 144.011 118.489C144.291 118.489 144.525 118.415 144.713 118.267C144.902 118.117 145.044 117.917 145.139 117.665C145.235 117.411 145.284 117.129 145.284 116.818C145.284 116.511 145.236 116.235 145.142 115.989C145.049 115.741 144.908 115.545 144.718 115.401C144.531 115.255 144.295 115.182 144.011 115.182C143.738 115.182 143.509 115.251 143.324 115.389C143.138 115.526 142.998 115.717 142.903 115.963C142.808 116.207 142.761 116.492 142.761 116.818ZM147.068 119V113.182H147.738V115.33H147.795C147.844 115.254 147.913 115.157 148 115.04C148.089 114.92 148.216 114.814 148.38 114.722C148.547 114.627 148.772 114.58 149.056 114.58C149.424 114.58 149.748 114.671 150.028 114.855C150.308 115.039 150.527 115.299 150.684 115.636C150.842 115.973 150.92 116.371 150.92 116.83C150.92 117.292 150.842 117.692 150.684 118.031C150.527 118.368 150.309 118.63 150.031 118.815C149.752 118.999 149.431 119.091 149.068 119.091C148.788 119.091 148.563 119.045 148.395 118.952C148.226 118.857 148.096 118.75 148.005 118.631C147.914 118.509 147.844 118.409 147.795 118.33H147.716V119H147.068ZM147.727 116.818C147.727 117.148 147.775 117.438 147.872 117.69C147.968 117.94 148.109 118.136 148.295 118.278C148.481 118.419 148.708 118.489 148.977 118.489C149.257 118.489 149.491 118.415 149.679 118.267C149.868 118.117 150.01 117.917 150.105 117.665C150.201 117.411 150.25 117.129 150.25 116.818C150.25 116.511 150.202 116.235 150.108 115.989C150.015 115.741 149.874 115.545 149.684 115.401C149.497 115.255 149.261 115.182 148.977 115.182C148.704 115.182 148.475 115.251 148.289 115.389C148.104 115.526 147.964 115.717 147.869 115.963C147.774 116.207 147.727 116.492 147.727 116.818ZM153.775 119.091C153.355 119.091 152.992 118.998 152.687 118.812C152.384 118.625 152.15 118.364 151.985 118.028C151.823 117.691 151.741 117.299 151.741 116.852C151.741 116.405 151.823 116.011 151.985 115.67C152.15 115.328 152.379 115.061 152.673 114.869C152.968 114.676 153.313 114.58 153.707 114.58C153.934 114.58 154.159 114.617 154.38 114.693C154.602 114.769 154.804 114.892 154.985 115.062C155.167 115.231 155.312 115.455 155.42 115.733C155.528 116.011 155.582 116.354 155.582 116.761V117.045H152.218V116.466H154.9C154.9 116.22 154.851 116 154.752 115.807C154.656 115.614 154.518 115.461 154.338 115.349C154.16 115.238 153.949 115.182 153.707 115.182C153.44 115.182 153.209 115.248 153.014 115.381C152.821 115.511 152.672 115.682 152.568 115.892C152.464 116.102 152.412 116.328 152.412 116.568V116.955C152.412 117.284 152.468 117.563 152.582 117.793C152.698 118.02 152.858 118.193 153.062 118.312C153.267 118.43 153.504 118.489 153.775 118.489C153.951 118.489 154.11 118.464 154.252 118.415C154.396 118.364 154.52 118.288 154.625 118.188C154.729 118.085 154.809 117.958 154.866 117.807L155.514 117.989C155.446 118.208 155.331 118.402 155.17 118.568C155.009 118.733 154.81 118.862 154.574 118.955C154.337 119.045 154.071 119.091 153.775 119.091ZM157.272 113.182V119H156.602V113.182H157.272ZM159.171 113.182V119H158.5V113.182H159.171ZM164.683 113.182V119H163.978V113.92H163.944L162.524 114.864V114.148L163.978 113.182H164.683ZM168.402 113.182V119H167.697V113.92H167.663L166.243 114.864V114.148L167.697 113.182H168.402ZM172.143 112.909L170.268 119.875H169.654L171.529 112.909H172.143ZM172.926 119V118.489L174.847 116.386C175.072 116.14 175.258 115.926 175.404 115.744C175.55 115.561 175.658 115.388 175.728 115.227C175.8 115.064 175.836 114.894 175.836 114.716C175.836 114.511 175.786 114.334 175.688 114.185C175.591 114.035 175.459 113.92 175.29 113.838C175.122 113.757 174.932 113.716 174.722 113.716C174.498 113.716 174.303 113.762 174.137 113.855C173.972 113.946 173.844 114.074 173.753 114.239C173.664 114.403 173.62 114.597 173.62 114.818H172.949C172.949 114.477 173.028 114.178 173.185 113.92C173.342 113.663 173.556 113.462 173.827 113.318C174.1 113.174 174.406 113.102 174.745 113.102C175.086 113.102 175.388 113.174 175.651 113.318C175.914 113.462 176.121 113.656 176.27 113.901C176.42 114.145 176.495 114.417 176.495 114.716C176.495 114.93 176.456 115.139 176.378 115.344C176.302 115.546 176.17 115.773 175.98 116.023C175.793 116.271 175.533 116.574 175.199 116.932L173.892 118.33V118.375H176.597V119H172.926ZM179.736 119.08C179.361 119.08 179.027 119.015 178.733 118.886C178.442 118.758 178.21 118.579 178.037 118.349C177.867 118.118 177.774 117.85 177.759 117.545H178.475C178.49 117.733 178.554 117.895 178.668 118.031C178.782 118.166 178.93 118.27 179.114 118.344C179.298 118.418 179.501 118.455 179.725 118.455C179.975 118.455 180.196 118.411 180.39 118.324C180.583 118.237 180.734 118.116 180.844 117.96C180.954 117.805 181.009 117.625 181.009 117.42C181.009 117.206 180.956 117.018 180.85 116.855C180.744 116.69 180.588 116.562 180.384 116.469C180.179 116.376 179.929 116.33 179.634 116.33H179.168V115.705H179.634C179.865 115.705 180.068 115.663 180.242 115.58C180.418 115.496 180.555 115.379 180.654 115.227C180.754 115.076 180.804 114.898 180.804 114.693C180.804 114.496 180.761 114.325 180.674 114.179C180.587 114.033 180.463 113.92 180.304 113.838C180.147 113.757 179.962 113.716 179.748 113.716C179.547 113.716 179.357 113.753 179.179 113.827C179.003 113.899 178.859 114.004 178.748 114.142C178.636 114.278 178.575 114.443 178.566 114.636H177.884C177.895 114.331 177.987 114.064 178.159 113.835C178.332 113.604 178.557 113.424 178.836 113.295C179.116 113.167 179.424 113.102 179.759 113.102C180.119 113.102 180.427 113.175 180.685 113.321C180.943 113.465 181.141 113.655 181.279 113.892C181.417 114.129 181.486 114.384 181.486 114.659C181.486 114.987 181.4 115.266 181.228 115.497C181.057 115.728 180.825 115.888 180.532 115.977V116.023C180.899 116.083 181.186 116.24 181.392 116.491C181.599 116.741 181.702 117.051 181.702 117.42C181.702 117.737 181.616 118.021 181.444 118.273C181.273 118.523 181.04 118.72 180.745 118.864C180.449 119.008 180.113 119.08 179.736 119.08ZM184.932 112.909L183.057 119.875H182.444L184.319 112.909H184.932ZM185.716 119V118.489L187.636 116.386C187.861 116.14 188.047 115.926 188.193 115.744C188.339 115.561 188.447 115.388 188.517 115.227C188.589 115.064 188.625 114.894 188.625 114.716C188.625 114.511 188.575 114.334 188.477 114.185C188.38 114.035 188.248 113.92 188.079 113.838C187.911 113.757 187.721 113.716 187.511 113.716C187.288 113.716 187.092 113.762 186.926 113.855C186.761 113.946 186.633 114.074 186.542 114.239C186.453 114.403 186.409 114.597 186.409 114.818H185.738C185.738 114.477 185.817 114.178 185.974 113.92C186.131 113.663 186.345 113.462 186.616 113.318C186.889 113.174 187.195 113.102 187.534 113.102C187.875 113.102 188.177 113.174 188.44 113.318C188.703 113.462 188.91 113.656 189.059 113.901C189.209 114.145 189.284 114.417 189.284 114.716C189.284 114.93 189.245 115.139 189.167 115.344C189.092 115.546 188.959 115.773 188.77 116.023C188.582 116.271 188.322 116.574 187.988 116.932L186.681 118.33V118.375H189.386V119H185.716ZM192.377 119.08C192.044 119.08 191.744 119.013 191.477 118.881C191.21 118.748 190.996 118.566 190.835 118.335C190.674 118.104 190.586 117.841 190.571 117.545H191.252C191.279 117.809 191.398 118.027 191.61 118.199C191.824 118.369 192.08 118.455 192.377 118.455C192.616 118.455 192.828 118.399 193.014 118.287C193.201 118.175 193.348 118.022 193.454 117.827C193.562 117.63 193.616 117.407 193.616 117.159C193.616 116.905 193.56 116.679 193.449 116.48C193.339 116.279 193.187 116.121 192.994 116.006C192.801 115.89 192.58 115.831 192.332 115.83C192.154 115.828 191.971 115.855 191.784 115.912C191.596 115.967 191.442 116.038 191.321 116.125L190.662 116.045L191.014 113.182H194.037V113.807H191.605L191.4 115.523H191.434C191.554 115.428 191.703 115.349 191.883 115.287C192.063 115.224 192.251 115.193 192.446 115.193C192.802 115.193 193.119 115.278 193.397 115.449C193.678 115.617 193.897 115.848 194.056 116.142C194.217 116.436 194.298 116.771 194.298 117.148C194.298 117.519 194.215 117.85 194.048 118.142C193.883 118.432 193.656 118.661 193.366 118.83C193.076 118.996 192.747 119.08 192.377 119.08Z" fill="black"/>
<path d="M108.935 218V212.182H110.901C111.357 212.182 111.73 212.264 112.02 212.429C112.312 212.592 112.528 212.812 112.668 213.091C112.808 213.369 112.878 213.68 112.878 214.023C112.878 214.366 112.808 214.677 112.668 214.957C112.53 215.238 112.316 215.461 112.026 215.628C111.736 215.793 111.365 215.875 110.912 215.875H109.503V215.25H110.89C111.202 215.25 111.453 215.196 111.642 215.088C111.832 214.98 111.969 214.834 112.054 214.651C112.141 214.465 112.185 214.256 112.185 214.023C112.185 213.79 112.141 213.581 112.054 213.398C111.969 213.214 111.831 213.07 111.64 212.966C111.448 212.86 111.194 212.807 110.878 212.807H109.64V218H108.935ZM115.705 218.091C115.284 218.091 114.922 217.998 114.617 217.812C114.314 217.625 114.08 217.364 113.915 217.028C113.752 216.691 113.671 216.299 113.671 215.852C113.671 215.405 113.752 215.011 113.915 214.67C114.08 214.328 114.309 214.061 114.603 213.869C114.898 213.676 115.243 213.58 115.637 213.58C115.864 213.58 116.088 213.617 116.31 213.693C116.532 213.769 116.733 213.892 116.915 214.062C117.097 214.231 117.242 214.455 117.35 214.733C117.458 215.011 117.512 215.354 117.512 215.761V216.045H114.148V215.466H116.83C116.83 215.22 116.781 215 116.682 214.807C116.586 214.614 116.447 214.461 116.267 214.349C116.089 214.238 115.879 214.182 115.637 214.182C115.37 214.182 115.139 214.248 114.944 214.381C114.75 214.511 114.602 214.682 114.498 214.892C114.393 215.102 114.341 215.328 114.341 215.568V215.955C114.341 216.284 114.398 216.563 114.512 216.793C114.627 217.02 114.787 217.193 114.992 217.312C115.196 217.43 115.434 217.489 115.705 217.489C115.881 217.489 116.04 217.464 116.182 217.415C116.326 217.364 116.45 217.288 116.554 217.188C116.658 217.085 116.739 216.958 116.796 216.807L117.444 216.989C117.375 217.208 117.261 217.402 117.1 217.568C116.939 217.733 116.74 217.862 116.503 217.955C116.266 218.045 116 218.091 115.705 218.091ZM120.429 213.636V214.205H118.168V213.636H120.429ZM118.827 212.591H119.498V216.75C119.498 216.939 119.525 217.081 119.58 217.176C119.637 217.269 119.709 217.331 119.796 217.364C119.885 217.394 119.979 217.409 120.077 217.409C120.151 217.409 120.212 217.405 120.259 217.398C120.306 217.388 120.344 217.381 120.373 217.375L120.509 217.977C120.463 217.994 120.4 218.011 120.319 218.028C120.237 218.047 120.134 218.057 120.009 218.057C119.819 218.057 119.634 218.016 119.452 217.935C119.272 217.853 119.123 217.729 119.003 217.562C118.886 217.396 118.827 217.186 118.827 216.932V212.591ZM123.221 218.091C122.8 218.091 122.437 217.998 122.132 217.812C121.829 217.625 121.596 217.364 121.431 217.028C121.268 216.691 121.186 216.299 121.186 215.852C121.186 215.405 121.268 215.011 121.431 214.67C121.596 214.328 121.825 214.061 122.118 213.869C122.414 213.676 122.758 213.58 123.152 213.58C123.38 213.58 123.604 213.617 123.826 213.693C124.047 213.769 124.249 213.892 124.431 214.062C124.613 214.231 124.757 214.455 124.865 214.733C124.973 215.011 125.027 215.354 125.027 215.761V216.045H121.664V215.466H124.346C124.346 215.22 124.296 215 124.198 214.807C124.101 214.614 123.963 214.461 123.783 214.349C123.605 214.238 123.395 214.182 123.152 214.182C122.885 214.182 122.654 214.248 122.459 214.381C122.266 214.511 122.117 214.682 122.013 214.892C121.909 215.102 121.857 215.328 121.857 215.568V215.955C121.857 216.284 121.914 216.563 122.027 216.793C122.143 217.02 122.303 217.193 122.507 217.312C122.712 217.43 122.95 217.489 123.221 217.489C123.397 217.489 123.556 217.464 123.698 217.415C123.842 217.364 123.966 217.288 124.07 217.188C124.174 217.085 124.255 216.958 124.311 216.807L124.959 216.989C124.891 217.208 124.776 217.402 124.615 217.568C124.454 217.733 124.256 217.862 124.019 217.955C123.782 218.045 123.516 218.091 123.221 218.091ZM126.047 218V213.636H126.695V214.295H126.74C126.82 214.08 126.964 213.904 127.172 213.77C127.381 213.635 127.615 213.568 127.877 213.568C127.926 213.568 127.988 213.569 128.061 213.571C128.135 213.573 128.191 213.576 128.229 213.58V214.261C128.206 214.256 128.154 214.247 128.073 214.236C127.993 214.223 127.909 214.216 127.82 214.216C127.608 214.216 127.418 214.26 127.252 214.349C127.087 214.437 126.956 214.558 126.86 214.713C126.765 214.866 126.718 215.042 126.718 215.239V218H126.047ZM135.342 214C135.279 213.809 135.197 213.637 135.095 213.486C134.994 213.332 134.874 213.202 134.734 213.094C134.596 212.986 134.439 212.903 134.262 212.847C134.086 212.79 133.893 212.761 133.683 212.761C133.338 212.761 133.025 212.85 132.743 213.028C132.46 213.206 132.236 213.469 132.069 213.815C131.903 214.162 131.819 214.587 131.819 215.091C131.819 215.595 131.904 216.02 132.072 216.366C132.241 216.713 132.469 216.975 132.757 217.153C133.045 217.331 133.368 217.42 133.728 217.42C134.062 217.42 134.355 217.349 134.609 217.207C134.865 217.063 135.064 216.861 135.206 216.599C135.35 216.336 135.422 216.027 135.422 215.67L135.637 215.716H133.887V215.091H136.103V215.716C136.103 216.195 136.001 216.612 135.797 216.966C135.594 217.32 135.314 217.595 134.956 217.79C134.6 217.983 134.19 218.08 133.728 218.08C133.213 218.08 132.761 217.958 132.37 217.716C131.982 217.473 131.679 217.129 131.461 216.682C131.245 216.235 131.137 215.705 131.137 215.091C131.137 214.631 131.199 214.217 131.322 213.849C131.447 213.48 131.623 213.166 131.85 212.906C132.078 212.647 132.347 212.448 132.657 212.31C132.968 212.171 133.31 212.102 133.683 212.102C133.99 212.102 134.276 212.149 134.541 212.241C134.808 212.332 135.046 212.462 135.254 212.631C135.464 212.797 135.639 212.997 135.779 213.23C135.92 213.461 136.016 213.718 136.069 214H135.342ZM137.219 218V213.636H137.867V214.295H137.912C137.992 214.08 138.136 213.904 138.344 213.77C138.552 213.635 138.787 213.568 139.049 213.568C139.098 213.568 139.159 213.569 139.233 213.571C139.307 213.573 139.363 213.576 139.401 213.58V214.261C139.378 214.256 139.326 214.247 139.245 214.236C139.165 214.223 139.081 214.216 138.992 214.216C138.78 214.216 138.59 214.26 138.424 214.349C138.259 214.437 138.128 214.558 138.032 214.713C137.937 214.866 137.89 215.042 137.89 215.239V218H137.219ZM140.196 218V213.636H140.866V218H140.196ZM140.537 212.909C140.406 212.909 140.293 212.865 140.199 212.776C140.106 212.687 140.059 212.58 140.059 212.455C140.059 212.33 140.106 212.223 140.199 212.134C140.293 212.045 140.406 212 140.537 212C140.667 212 140.779 212.045 140.872 212.134C140.967 212.223 141.014 212.33 141.014 212.455C141.014 212.58 140.967 212.687 140.872 212.776C140.779 212.865 140.667 212.909 140.537 212.909ZM144.037 213.636V214.205H141.685V213.636H144.037ZM142.39 218V213.034C142.39 212.784 142.448 212.576 142.566 212.409C142.683 212.242 142.836 212.117 143.023 212.034C143.211 211.951 143.408 211.909 143.617 211.909C143.782 211.909 143.916 211.922 144.02 211.949C144.124 211.975 144.202 212 144.253 212.023L144.06 212.602C144.026 212.591 143.979 212.577 143.918 212.56C143.859 212.543 143.782 212.534 143.685 212.534C143.463 212.534 143.303 212.59 143.205 212.702C143.108 212.813 143.06 212.977 143.06 213.193V218H142.39ZM146.92 213.636V214.205H144.568V213.636H146.92ZM145.272 218V213.034C145.272 212.784 145.331 212.576 145.449 212.409C145.566 212.242 145.718 212.117 145.906 212.034C146.093 211.951 146.291 211.909 146.5 211.909C146.664 211.909 146.799 211.922 146.903 211.949C147.007 211.975 147.085 212 147.136 212.023L146.943 212.602C146.909 212.591 146.861 212.577 146.801 212.56C146.742 212.543 146.664 212.534 146.568 212.534C146.346 212.534 146.186 212.59 146.088 212.702C145.991 212.813 145.943 212.977 145.943 213.193V218H145.272ZM147.86 218V213.636H148.53V218H147.86ZM148.201 212.909C148.07 212.909 147.957 212.865 147.863 212.776C147.77 212.687 147.723 212.58 147.723 212.455C147.723 212.33 147.77 212.223 147.863 212.134C147.957 212.045 148.07 212 148.201 212C148.331 212 148.443 212.045 148.536 212.134C148.631 212.223 148.678 212.33 148.678 212.455C148.678 212.58 148.631 212.687 148.536 212.776C148.443 212.865 148.331 212.909 148.201 212.909ZM150.429 215.375V218H149.758V213.636H150.406V214.318H150.463C150.565 214.097 150.72 213.919 150.929 213.784C151.137 213.648 151.406 213.58 151.735 213.58C152.031 213.58 152.289 213.64 152.511 213.761C152.733 213.881 152.905 214.062 153.028 214.307C153.151 214.549 153.213 214.856 153.213 215.227V218H152.542V215.273C152.542 214.93 152.453 214.663 152.275 214.472C152.097 214.278 151.853 214.182 151.542 214.182C151.328 214.182 151.137 214.228 150.968 214.321C150.802 214.414 150.67 214.549 150.574 214.727C150.477 214.905 150.429 215.121 150.429 215.375ZM158.722 212.182V218H158.017V212.92H157.983L156.563 213.864V213.148L158.017 212.182H158.722ZM162.441 212.182V218H161.736V212.92H161.702L160.282 213.864V213.148L161.736 212.182H162.441ZM166.182 211.909L164.307 218.875H163.694L165.569 211.909H166.182ZM166.966 218V217.489L168.886 215.386C169.111 215.14 169.297 214.926 169.443 214.744C169.589 214.561 169.697 214.388 169.767 214.227C169.839 214.064 169.875 213.894 169.875 213.716C169.875 213.511 169.825 213.334 169.727 213.185C169.63 213.035 169.498 212.92 169.329 212.838C169.161 212.757 168.971 212.716 168.761 212.716C168.538 212.716 168.342 212.762 168.176 212.855C168.011 212.946 167.883 213.074 167.792 213.239C167.703 213.403 167.659 213.597 167.659 213.818H166.988C166.988 213.477 167.067 213.178 167.224 212.92C167.381 212.663 167.595 212.462 167.866 212.318C168.139 212.174 168.445 212.102 168.784 212.102C169.125 212.102 169.427 212.174 169.69 212.318C169.953 212.462 170.16 212.656 170.309 212.901C170.459 213.145 170.534 213.417 170.534 213.716C170.534 213.93 170.495 214.139 170.417 214.344C170.342 214.546 170.209 214.773 170.02 215.023C169.832 215.271 169.572 215.574 169.238 215.932L167.931 217.33V217.375H170.636V218H166.966ZM173.707 218.08C173.279 218.08 172.914 217.963 172.613 217.73C172.312 217.495 172.082 217.155 171.923 216.71C171.764 216.263 171.684 215.723 171.684 215.091C171.684 214.462 171.764 213.925 171.923 213.48C172.084 213.033 172.315 212.692 172.616 212.457C172.919 212.221 173.283 212.102 173.707 212.102C174.131 212.102 174.494 212.221 174.795 212.457C175.098 212.692 175.329 213.033 175.488 213.48C175.649 213.925 175.73 214.462 175.73 215.091C175.73 215.723 175.65 216.263 175.491 216.71C175.332 217.155 175.102 217.495 174.801 217.73C174.5 217.963 174.135 218.08 173.707 218.08ZM173.707 217.455C174.131 217.455 174.461 217.25 174.696 216.841C174.931 216.432 175.048 215.848 175.048 215.091C175.048 214.587 174.994 214.158 174.886 213.804C174.78 213.45 174.627 213.18 174.426 212.994C174.227 212.809 173.987 212.716 173.707 212.716C173.287 212.716 172.958 212.923 172.721 213.338C172.484 213.751 172.366 214.335 172.366 215.091C172.366 215.595 172.419 216.023 172.525 216.375C172.631 216.727 172.784 216.995 172.983 217.179C173.183 217.363 173.425 217.455 173.707 217.455ZM178.877 211.909L177.002 218.875H176.389L178.264 211.909H178.877ZM179.661 218V217.489L181.581 215.386C181.807 215.14 181.992 214.926 182.138 214.744C182.284 214.561 182.392 214.388 182.462 214.227C182.534 214.064 182.57 213.894 182.57 213.716C182.57 213.511 182.521 213.334 182.422 213.185C182.326 213.035 182.193 212.92 182.025 212.838C181.856 212.757 181.667 212.716 181.456 212.716C181.233 212.716 181.038 212.762 180.871 212.855C180.706 212.946 180.578 213.074 180.488 213.239C180.399 213.403 180.354 213.597 180.354 213.818H179.684C179.684 213.477 179.762 213.178 179.919 212.92C180.077 212.663 180.291 212.462 180.561 212.318C180.834 212.174 181.14 212.102 181.479 212.102C181.82 212.102 182.122 212.174 182.385 212.318C182.649 212.462 182.855 212.656 183.005 212.901C183.154 213.145 183.229 213.417 183.229 213.716C183.229 213.93 183.19 214.139 183.113 214.344C183.037 214.546 182.904 214.773 182.715 215.023C182.527 215.271 182.267 215.574 181.934 215.932L180.627 217.33V217.375H183.331V218H179.661ZM186.323 218.08C185.989 218.08 185.689 218.013 185.422 217.881C185.155 217.748 184.941 217.566 184.78 217.335C184.619 217.104 184.531 216.841 184.516 216.545H185.198C185.224 216.809 185.344 217.027 185.556 217.199C185.77 217.369 186.025 217.455 186.323 217.455C186.561 217.455 186.774 217.399 186.959 217.287C187.147 217.175 187.293 217.022 187.4 216.827C187.507 216.63 187.561 216.407 187.561 216.159C187.561 215.905 187.506 215.679 187.394 215.48C187.284 215.279 187.132 215.121 186.939 215.006C186.746 214.89 186.525 214.831 186.277 214.83C186.099 214.828 185.917 214.855 185.729 214.912C185.542 214.967 185.387 215.038 185.266 215.125L184.607 215.045L184.959 212.182H187.982V212.807H185.55L185.346 214.523H185.38C185.499 214.428 185.649 214.349 185.828 214.287C186.008 214.224 186.196 214.193 186.391 214.193C186.747 214.193 187.064 214.278 187.343 214.449C187.623 214.617 187.843 214.848 188.002 215.142C188.163 215.436 188.243 215.771 188.243 216.148C188.243 216.519 188.16 216.85 187.993 217.142C187.828 217.432 187.601 217.661 187.311 217.83C187.022 217.996 186.692 218.08 186.323 218.08Z" fill="black"/>
<path d="M112.837 317V311.182H113.542V316.375H116.246V317H112.837ZM117.246 317V312.636H117.917V317H117.246ZM117.587 311.909C117.457 311.909 117.344 311.865 117.249 311.776C117.156 311.687 117.11 311.58 117.11 311.455C117.11 311.33 117.156 311.223 117.249 311.134C117.344 311.045 117.457 311 117.587 311C117.718 311 117.83 311.045 117.923 311.134C118.017 311.223 118.065 311.33 118.065 311.455C118.065 311.58 118.017 311.687 117.923 311.776C117.83 311.865 117.718 311.909 117.587 311.909ZM122.236 313.614L121.634 313.784C121.596 313.684 121.54 313.586 121.466 313.491C121.394 313.395 121.295 313.315 121.17 313.253C121.045 313.19 120.885 313.159 120.69 313.159C120.423 313.159 120.201 313.221 120.023 313.344C119.847 313.465 119.759 313.619 119.759 313.807C119.759 313.973 119.819 314.105 119.94 314.202C120.062 314.298 120.251 314.379 120.509 314.443L121.156 314.602C121.546 314.697 121.837 314.842 122.028 315.037C122.22 315.23 122.315 315.479 122.315 315.784C122.315 316.034 122.243 316.258 122.099 316.455C121.957 316.652 121.759 316.807 121.503 316.92C121.247 317.034 120.95 317.091 120.611 317.091C120.166 317.091 119.797 316.994 119.506 316.801C119.214 316.608 119.029 316.326 118.952 315.955L119.588 315.795C119.649 316.03 119.763 316.206 119.932 316.324C120.102 316.441 120.325 316.5 120.599 316.5C120.912 316.5 121.16 316.434 121.344 316.301C121.529 316.167 121.622 316.006 121.622 315.818C121.622 315.667 121.569 315.54 121.463 315.438C121.357 315.333 121.194 315.256 120.974 315.205L120.247 315.034C119.848 314.939 119.554 314.793 119.366 314.594C119.181 314.393 119.088 314.142 119.088 313.841C119.088 313.595 119.157 313.377 119.295 313.188C119.436 312.998 119.626 312.849 119.866 312.741C120.109 312.634 120.384 312.58 120.69 312.58C121.122 312.58 121.461 312.674 121.707 312.864C121.955 313.053 122.132 313.303 122.236 313.614ZM124.609 317.102C124.332 317.102 124.081 317.05 123.856 316.946C123.63 316.84 123.451 316.688 123.319 316.489C123.186 316.288 123.12 316.045 123.12 315.761C123.12 315.511 123.169 315.309 123.268 315.153C123.366 314.996 123.498 314.873 123.663 314.784C123.827 314.695 124.009 314.629 124.208 314.585C124.409 314.54 124.611 314.504 124.813 314.477C125.078 314.443 125.293 314.418 125.458 314.401C125.625 314.382 125.746 314.35 125.822 314.307C125.899 314.263 125.938 314.187 125.938 314.08V314.057C125.938 313.777 125.862 313.559 125.708 313.403C125.557 313.248 125.326 313.17 125.018 313.17C124.698 313.17 124.447 313.241 124.265 313.381C124.083 313.521 123.955 313.67 123.881 313.83L123.245 313.602C123.359 313.337 123.51 313.131 123.7 312.983C123.891 312.833 124.099 312.729 124.325 312.67C124.552 312.61 124.775 312.58 124.995 312.58C125.135 312.58 125.296 312.597 125.478 312.631C125.662 312.663 125.839 312.73 126.009 312.832C126.182 312.935 126.325 313.089 126.438 313.295C126.552 313.502 126.609 313.778 126.609 314.125V317H125.938V316.409H125.904C125.859 316.504 125.783 316.605 125.677 316.713C125.571 316.821 125.43 316.913 125.254 316.989C125.077 317.064 124.862 317.102 124.609 317.102ZM124.711 316.5C124.976 316.5 125.2 316.448 125.381 316.344C125.565 316.24 125.703 316.105 125.796 315.94C125.891 315.776 125.938 315.602 125.938 315.42V314.807C125.91 314.841 125.847 314.872 125.751 314.901C125.656 314.927 125.546 314.951 125.421 314.972C125.298 314.991 125.178 315.008 125.06 315.023C124.945 315.036 124.851 315.047 124.779 315.057C124.605 315.08 124.442 315.116 124.29 315.168C124.141 315.217 124.02 315.292 123.927 315.392C123.836 315.491 123.79 315.625 123.79 315.795C123.79 316.028 123.877 316.205 124.049 316.324C124.223 316.441 124.444 316.5 124.711 316.5ZM131.23 317L129.639 311.182H130.355L131.571 315.92H131.628L132.866 311.182H133.662L134.901 315.92H134.957L136.173 311.182H136.889L135.298 317H134.571L133.287 312.364H133.241L131.957 317H131.23ZM138.347 314.375V317H137.676V311.182H138.347V313.318H138.403C138.506 313.093 138.659 312.914 138.864 312.781C139.07 312.647 139.345 312.58 139.688 312.58C139.985 312.58 140.245 312.639 140.469 312.759C140.692 312.876 140.866 313.057 140.989 313.301C141.114 313.544 141.176 313.852 141.176 314.227V317H140.506V314.273C140.506 313.926 140.416 313.658 140.236 313.469C140.058 313.277 139.811 313.182 139.494 313.182C139.275 313.182 139.078 313.228 138.903 313.321C138.731 313.414 138.595 313.549 138.494 313.727C138.396 313.905 138.347 314.121 138.347 314.375ZM142.403 317V312.636H143.073V317H142.403ZM142.744 311.909C142.613 311.909 142.5 311.865 142.406 311.776C142.313 311.687 142.266 311.58 142.266 311.455C142.266 311.33 142.313 311.223 142.406 311.134C142.5 311.045 142.613 311 142.744 311C142.874 311 142.986 311.045 143.079 311.134C143.174 311.223 143.221 311.33 143.221 311.455C143.221 311.58 143.174 311.687 143.079 311.776C142.986 311.865 142.874 311.909 142.744 311.909ZM146.199 312.636V313.205H143.938V312.636H146.199ZM144.597 311.591H145.267V315.75C145.267 315.939 145.295 316.081 145.349 316.176C145.406 316.269 145.478 316.331 145.565 316.364C145.654 316.394 145.748 316.409 145.847 316.409C145.92 316.409 145.981 316.405 146.028 316.398C146.076 316.388 146.114 316.381 146.142 316.375L146.278 316.977C146.233 316.994 146.17 317.011 146.088 317.028C146.007 317.047 145.903 317.057 145.778 317.057C145.589 317.057 145.403 317.016 145.222 316.935C145.042 316.853 144.892 316.729 144.773 316.562C144.655 316.396 144.597 316.186 144.597 315.932V311.591ZM148.99 317.091C148.57 317.091 148.207 316.998 147.902 316.812C147.599 316.625 147.365 316.364 147.2 316.028C147.037 315.691 146.956 315.299 146.956 314.852C146.956 314.405 147.037 314.011 147.2 313.67C147.365 313.328 147.594 313.061 147.888 312.869C148.183 312.676 148.528 312.58 148.922 312.58C149.149 312.58 149.374 312.617 149.595 312.693C149.817 312.769 150.018 312.892 150.2 313.062C150.382 313.231 150.527 313.455 150.635 313.733C150.743 314.011 150.797 314.354 150.797 314.761V315.045H147.433V314.466H150.115C150.115 314.22 150.066 314 149.967 313.807C149.871 313.614 149.732 313.461 149.553 313.349C149.375 313.238 149.164 313.182 148.922 313.182C148.655 313.182 148.424 313.248 148.229 313.381C148.036 313.511 147.887 313.682 147.783 313.892C147.679 314.102 147.626 314.328 147.626 314.568V314.955C147.626 315.284 147.683 315.563 147.797 315.793C147.912 316.02 148.072 316.193 148.277 316.312C148.482 316.43 148.719 316.489 148.99 316.489C149.166 316.489 149.325 316.464 149.467 316.415C149.611 316.364 149.735 316.288 149.839 316.188C149.944 316.085 150.024 315.958 150.081 315.807L150.729 315.989C150.661 316.208 150.546 316.402 150.385 316.568C150.224 316.733 150.025 316.862 149.788 316.955C149.552 317.045 149.286 317.091 148.99 317.091ZM156.101 311.182V317H155.396V311.92H155.362L153.942 312.864V312.148L155.396 311.182H156.101ZM159.82 311.182V317H159.115V311.92H159.081L157.661 312.864V312.148L159.115 311.182H159.82ZM163.561 310.909L161.686 317.875H161.072L162.947 310.909H163.561ZM164.344 317V316.489L166.265 314.386C166.49 314.14 166.676 313.926 166.822 313.744C166.968 313.561 167.076 313.388 167.146 313.227C167.218 313.064 167.254 312.894 167.254 312.716C167.254 312.511 167.204 312.334 167.106 312.185C167.009 312.035 166.877 311.92 166.708 311.838C166.54 311.757 166.35 311.716 166.14 311.716C165.916 311.716 165.721 311.762 165.555 311.855C165.39 311.946 165.262 312.074 165.171 312.239C165.082 312.403 165.038 312.597 165.038 312.818H164.367C164.367 312.477 164.446 312.178 164.603 311.92C164.76 311.663 164.974 311.462 165.245 311.318C165.518 311.174 165.824 311.102 166.163 311.102C166.504 311.102 166.806 311.174 167.069 311.318C167.332 311.462 167.539 311.656 167.688 311.901C167.838 312.145 167.913 312.417 167.913 312.716C167.913 312.93 167.874 313.139 167.796 313.344C167.72 313.546 167.588 313.773 167.398 314.023C167.211 314.271 166.951 314.574 166.617 314.932L165.31 316.33V316.375H168.015V317H164.344ZM171.234 311.182V317H170.529V311.92H170.495L169.075 312.864V312.148L170.529 311.182H171.234ZM174.975 310.909L173.1 317.875H172.487L174.362 310.909H174.975ZM175.759 317V316.489L177.679 314.386C177.904 314.14 178.09 313.926 178.236 313.744C178.382 313.561 178.49 313.388 178.56 313.227C178.632 313.064 178.668 312.894 178.668 312.716C178.668 312.511 178.618 312.334 178.52 312.185C178.423 312.035 178.291 311.92 178.122 311.838C177.954 311.757 177.764 311.716 177.554 311.716C177.33 311.716 177.135 311.762 176.969 311.855C176.804 311.946 176.676 312.074 176.585 312.239C176.496 312.403 176.452 312.597 176.452 312.818H175.781C175.781 312.477 175.86 312.178 176.017 311.92C176.174 311.663 176.388 311.462 176.659 311.318C176.932 311.174 177.238 311.102 177.577 311.102C177.918 311.102 178.22 311.174 178.483 311.318C178.746 311.462 178.953 311.656 179.102 311.901C179.252 312.145 179.327 312.417 179.327 312.716C179.327 312.93 179.288 313.139 179.21 313.344C179.134 313.546 179.002 313.773 178.812 314.023C178.625 314.271 178.365 314.574 178.031 314.932L176.724 316.33V316.375H179.429V317H175.759ZM182.42 317.08C182.087 317.08 181.787 317.013 181.52 316.881C181.253 316.748 181.039 316.566 180.878 316.335C180.717 316.104 180.629 315.841 180.614 315.545H181.295C181.322 315.809 181.441 316.027 181.653 316.199C181.867 316.369 182.123 316.455 182.42 316.455C182.659 316.455 182.871 316.399 183.057 316.287C183.244 316.175 183.391 316.022 183.497 315.827C183.605 315.63 183.659 315.407 183.659 315.159C183.659 314.905 183.603 314.679 183.491 314.48C183.382 314.279 183.23 314.121 183.037 314.006C182.844 313.89 182.623 313.831 182.375 313.83C182.197 313.828 182.014 313.855 181.827 313.912C181.639 313.967 181.485 314.038 181.364 314.125L180.705 314.045L181.057 311.182H184.08V311.807H181.648L181.443 313.523H181.477C181.597 313.428 181.746 313.349 181.926 313.287C182.106 313.224 182.294 313.193 182.489 313.193C182.845 313.193 183.162 313.278 183.44 313.449C183.721 313.617 183.94 313.848 184.099 314.142C184.26 314.436 184.341 314.771 184.341 315.148C184.341 315.519 184.258 315.85 184.091 316.142C183.926 316.432 183.699 316.661 183.409 316.83C183.119 316.996 182.79 317.08 182.42 317.08Z" fill="black"/>
<path d="M276.412 311.182H277.117V315.341C277.117 315.712 277.049 316.027 276.912 316.287C276.776 316.546 276.584 316.743 276.336 316.878C276.087 317.012 275.795 317.08 275.458 317.08C275.14 317.08 274.856 317.022 274.608 316.906C274.36 316.789 274.165 316.622 274.023 316.406C273.881 316.19 273.81 315.934 273.81 315.636H274.503C274.503 315.801 274.544 315.945 274.625 316.068C274.709 316.189 274.822 316.284 274.966 316.352C275.11 316.42 275.274 316.455 275.458 316.455C275.66 316.455 275.833 316.412 275.975 316.327C276.117 316.241 276.225 316.116 276.299 315.952C276.374 315.785 276.412 315.581 276.412 315.341V311.182ZM279.722 317.102C279.445 317.102 279.194 317.05 278.969 316.946C278.744 316.84 278.565 316.688 278.432 316.489C278.3 316.288 278.233 316.045 278.233 315.761C278.233 315.511 278.283 315.309 278.381 315.153C278.48 314.996 278.611 314.873 278.776 314.784C278.941 314.695 279.123 314.629 279.321 314.585C279.522 314.54 279.724 314.504 279.926 314.477C280.192 314.443 280.407 314.418 280.571 314.401C280.738 314.382 280.859 314.35 280.935 314.307C281.013 314.263 281.051 314.187 281.051 314.08V314.057C281.051 313.777 280.975 313.559 280.821 313.403C280.67 313.248 280.44 313.17 280.131 313.17C279.811 313.17 279.56 313.241 279.378 313.381C279.196 313.521 279.069 313.67 278.995 313.83L278.358 313.602C278.472 313.337 278.623 313.131 278.813 312.983C279.004 312.833 279.212 312.729 279.438 312.67C279.665 312.61 279.889 312.58 280.108 312.58C280.248 312.58 280.409 312.597 280.591 312.631C280.775 312.663 280.952 312.73 281.123 312.832C281.295 312.935 281.438 313.089 281.551 313.295C281.665 313.502 281.722 313.778 281.722 314.125V317H281.051V316.409H281.017C280.972 316.504 280.896 316.605 280.79 316.713C280.684 316.821 280.543 316.913 280.367 316.989C280.191 317.064 279.976 317.102 279.722 317.102ZM279.824 316.5C280.089 316.5 280.313 316.448 280.495 316.344C280.678 316.24 280.817 316.105 280.909 315.94C281.004 315.776 281.051 315.602 281.051 315.42V314.807C281.023 314.841 280.961 314.872 280.864 314.901C280.769 314.927 280.659 314.951 280.534 314.972C280.411 314.991 280.291 315.008 280.174 315.023C280.058 315.036 279.964 315.047 279.892 315.057C279.718 315.08 279.555 315.116 279.404 315.168C279.254 315.217 279.133 315.292 279.04 315.392C278.949 315.491 278.904 315.625 278.904 315.795C278.904 316.028 278.99 316.205 279.162 316.324C279.337 316.441 279.557 316.5 279.824 316.5ZM286.037 313.614L285.434 313.784C285.396 313.684 285.341 313.586 285.267 313.491C285.195 313.395 285.096 313.315 284.971 313.253C284.846 313.19 284.686 313.159 284.491 313.159C284.224 313.159 284.002 313.221 283.824 313.344C283.647 313.465 283.559 313.619 283.559 313.807C283.559 313.973 283.62 314.105 283.741 314.202C283.862 314.298 284.052 314.379 284.309 314.443L284.957 314.602C285.347 314.697 285.638 314.842 285.829 315.037C286.02 315.23 286.116 315.479 286.116 315.784C286.116 316.034 286.044 316.258 285.9 316.455C285.758 316.652 285.559 316.807 285.304 316.92C285.048 317.034 284.751 317.091 284.412 317.091C283.967 317.091 283.598 316.994 283.306 316.801C283.015 316.608 282.83 316.326 282.752 315.955L283.389 315.795C283.449 316.03 283.564 316.206 283.733 316.324C283.903 316.441 284.126 316.5 284.4 316.5C284.713 316.5 284.961 316.434 285.145 316.301C285.33 316.167 285.423 316.006 285.423 315.818C285.423 315.667 285.37 315.54 285.264 315.438C285.158 315.333 284.995 315.256 284.775 315.205L284.048 315.034C283.648 314.939 283.355 314.793 283.167 314.594C282.982 314.393 282.889 314.142 282.889 313.841C282.889 313.595 282.958 313.377 283.096 313.188C283.236 312.998 283.427 312.849 283.667 312.741C283.91 312.634 284.184 312.58 284.491 312.58C284.923 312.58 285.262 312.674 285.508 312.864C285.756 313.053 285.932 313.303 286.037 313.614ZM288.898 317.091C288.504 317.091 288.158 316.997 287.861 316.81C287.566 316.622 287.335 316.36 287.168 316.023C287.003 315.686 286.921 315.292 286.921 314.841C286.921 314.386 287.003 313.99 287.168 313.651C287.335 313.312 287.566 313.048 287.861 312.861C288.158 312.673 288.504 312.58 288.898 312.58C289.292 312.58 289.637 312.673 289.932 312.861C290.23 313.048 290.461 313.312 290.625 313.651C290.792 313.99 290.875 314.386 290.875 314.841C290.875 315.292 290.792 315.686 290.625 316.023C290.461 316.36 290.23 316.622 289.932 316.81C289.637 316.997 289.292 317.091 288.898 317.091ZM288.898 316.489C289.197 316.489 289.444 316.412 289.637 316.259C289.83 316.105 289.973 315.903 290.066 315.653C290.158 315.403 290.205 315.133 290.205 314.841C290.205 314.549 290.158 314.277 290.066 314.026C289.973 313.774 289.83 313.57 289.637 313.415C289.444 313.259 289.197 313.182 288.898 313.182C288.599 313.182 288.353 313.259 288.159 313.415C287.966 313.57 287.823 313.774 287.73 314.026C287.638 314.277 287.591 314.549 287.591 314.841C287.591 315.133 287.638 315.403 287.73 315.653C287.823 315.903 287.966 316.105 288.159 316.259C288.353 316.412 288.599 316.489 288.898 316.489ZM292.569 314.375V317H291.899V312.636H292.547V313.318H292.603C292.706 313.097 292.861 312.919 293.069 312.784C293.278 312.648 293.547 312.58 293.876 312.58C294.172 312.58 294.43 312.64 294.652 312.761C294.873 312.881 295.046 313.062 295.169 313.307C295.292 313.549 295.353 313.856 295.353 314.227V317H294.683V314.273C294.683 313.93 294.594 313.663 294.416 313.472C294.238 313.278 293.993 313.182 293.683 313.182C293.469 313.182 293.278 313.228 293.109 313.321C292.942 313.414 292.811 313.549 292.714 313.727C292.618 313.905 292.569 314.121 292.569 314.375ZM299.976 317L298.385 311.182H299.101L300.317 315.92H300.374L301.613 311.182H302.408L303.647 315.92H303.703L304.919 311.182H305.635L304.044 317H303.317L302.033 312.364H301.988L300.703 317H299.976ZM307.3 317.102C307.024 317.102 306.773 317.05 306.547 316.946C306.322 316.84 306.143 316.688 306.01 316.489C305.878 316.288 305.811 316.045 305.811 315.761C305.811 315.511 305.861 315.309 305.959 315.153C306.058 314.996 306.189 314.873 306.354 314.784C306.519 314.695 306.701 314.629 306.9 314.585C307.1 314.54 307.302 314.504 307.505 314.477C307.77 314.443 307.985 314.418 308.15 314.401C308.316 314.382 308.437 314.35 308.513 314.307C308.591 314.263 308.63 314.187 308.63 314.08V314.057C308.63 313.777 308.553 313.559 308.4 313.403C308.248 313.248 308.018 313.17 307.709 313.17C307.389 313.17 307.138 313.241 306.956 313.381C306.775 313.521 306.647 313.67 306.573 313.83L305.936 313.602C306.05 313.337 306.202 313.131 306.391 312.983C306.582 312.833 306.791 312.729 307.016 312.67C307.243 312.61 307.467 312.58 307.686 312.58C307.827 312.58 307.988 312.597 308.169 312.631C308.353 312.663 308.53 312.73 308.701 312.832C308.873 312.935 309.016 313.089 309.13 313.295C309.243 313.502 309.3 313.778 309.3 314.125V317H308.63V316.409H308.596C308.55 316.504 308.474 316.605 308.368 316.713C308.262 316.821 308.121 316.913 307.945 316.989C307.769 317.064 307.554 317.102 307.3 317.102ZM307.402 316.5C307.667 316.5 307.891 316.448 308.073 316.344C308.257 316.24 308.395 316.105 308.488 315.94C308.582 315.776 308.63 315.602 308.63 315.42V314.807C308.601 314.841 308.539 314.872 308.442 314.901C308.347 314.927 308.238 314.951 308.113 314.972C307.989 314.991 307.869 315.008 307.752 315.023C307.636 315.036 307.542 315.047 307.471 315.057C307.296 315.08 307.133 315.116 306.982 315.168C306.832 315.217 306.711 315.292 306.618 315.392C306.527 315.491 306.482 315.625 306.482 315.795C306.482 316.028 306.568 316.205 306.74 316.324C306.915 316.441 307.135 316.5 307.402 316.5ZM311.194 311.182V317H310.524V311.182H311.194ZM313.093 311.182V317H312.422V311.182H313.093ZM318.605 311.182V317H317.9V311.92H317.866L316.446 312.864V312.148L317.9 311.182H318.605ZM322.324 311.182V317H321.619V311.92H321.585L320.164 312.864V312.148L321.619 311.182H322.324ZM326.065 310.909L324.19 317.875H323.576L325.451 310.909H326.065ZM326.848 317V316.489L328.769 314.386C328.994 314.14 329.18 313.926 329.326 313.744C329.471 313.561 329.579 313.388 329.65 313.227C329.721 313.064 329.757 312.894 329.757 312.716C329.757 312.511 329.708 312.334 329.61 312.185C329.513 312.035 329.381 311.92 329.212 311.838C329.043 311.757 328.854 311.716 328.644 311.716C328.42 311.716 328.225 311.762 328.059 311.855C327.894 311.946 327.766 312.074 327.675 312.239C327.586 312.403 327.542 312.597 327.542 312.818H326.871C326.871 312.477 326.95 312.178 327.107 311.92C327.264 311.663 327.478 311.462 327.749 311.318C328.022 311.174 328.328 311.102 328.667 311.102C329.007 311.102 329.31 311.174 329.573 311.318C329.836 311.462 330.042 311.656 330.192 311.901C330.342 312.145 330.417 312.417 330.417 312.716C330.417 312.93 330.378 313.139 330.3 313.344C330.224 313.546 330.092 313.773 329.902 314.023C329.715 314.271 329.454 314.574 329.121 314.932L327.814 316.33V316.375H330.519V317H326.848ZM333.51 317.08C333.177 317.08 332.877 317.013 332.61 316.881C332.343 316.748 332.129 316.566 331.968 316.335C331.807 316.104 331.719 315.841 331.703 315.545H332.385C332.412 315.809 332.531 316.027 332.743 316.199C332.957 316.369 333.213 316.455 333.51 316.455C333.749 316.455 333.961 316.399 334.147 316.287C334.334 316.175 334.481 316.022 334.587 315.827C334.695 315.63 334.749 315.407 334.749 315.159C334.749 314.905 334.693 314.679 334.581 314.48C334.471 314.279 334.32 314.121 334.127 314.006C333.934 313.89 333.713 313.831 333.465 313.83C333.287 313.828 333.104 313.855 332.917 313.912C332.729 313.967 332.575 314.038 332.453 314.125L331.794 314.045L332.147 311.182H335.169V311.807H332.738L332.533 313.523H332.567C332.686 313.428 332.836 313.349 333.016 313.287C333.196 313.224 333.383 313.193 333.578 313.193C333.935 313.193 334.252 313.278 334.53 313.449C334.81 313.617 335.03 313.848 335.189 314.142C335.35 314.436 335.431 314.771 335.431 315.148C335.431 315.519 335.347 315.85 335.181 316.142C335.016 316.432 334.789 316.661 334.499 316.83C334.209 316.996 333.88 317.08 333.51 317.08ZM338.627 310.909L336.752 317.875H336.139L338.014 310.909H338.627ZM339.411 317V316.489L341.331 314.386C341.557 314.14 341.742 313.926 341.888 313.744C342.034 313.561 342.142 313.388 342.212 313.227C342.284 313.064 342.32 312.894 342.32 312.716C342.32 312.511 342.271 312.334 342.172 312.185C342.076 312.035 341.943 311.92 341.775 311.838C341.606 311.757 341.417 311.716 341.206 311.716C340.983 311.716 340.788 311.762 340.621 311.855C340.456 311.946 340.328 312.074 340.238 312.239C340.149 312.403 340.104 312.597 340.104 312.818H339.434C339.434 312.477 339.512 312.178 339.669 311.92C339.827 311.663 340.041 311.462 340.311 311.318C340.584 311.174 340.89 311.102 341.229 311.102C341.57 311.102 341.872 311.174 342.135 311.318C342.399 311.462 342.605 311.656 342.755 311.901C342.904 312.145 342.979 312.417 342.979 312.716C342.979 312.93 342.94 313.139 342.863 313.344C342.787 313.546 342.654 313.773 342.465 314.023C342.277 314.271 342.017 314.574 341.684 314.932L340.377 316.33V316.375H343.081V317H339.411ZM346.073 317.08C345.739 317.08 345.439 317.013 345.172 316.881C344.905 316.748 344.691 316.566 344.53 316.335C344.369 316.104 344.281 315.841 344.266 315.545H344.948C344.974 315.809 345.094 316.027 345.306 316.199C345.52 316.369 345.775 316.455 346.073 316.455C346.311 316.455 346.524 316.399 346.709 316.287C346.897 316.175 347.043 316.022 347.15 315.827C347.257 315.63 347.311 315.407 347.311 315.159C347.311 314.905 347.256 314.679 347.144 314.48C347.034 314.279 346.882 314.121 346.689 314.006C346.496 313.89 346.275 313.831 346.027 313.83C345.849 313.828 345.667 313.855 345.479 313.912C345.292 313.967 345.137 314.038 345.016 314.125L344.357 314.045L344.709 311.182H347.732V311.807H345.3L345.096 313.523H345.13C345.249 313.428 345.399 313.349 345.578 313.287C345.758 313.224 345.946 313.193 346.141 313.193C346.497 313.193 346.814 313.278 347.093 313.449C347.373 313.617 347.593 313.848 347.752 314.142C347.913 314.436 347.993 314.771 347.993 315.148C347.993 315.519 347.91 315.85 347.743 316.142C347.578 316.432 347.351 316.661 347.061 316.83C346.772 316.996 346.442 317.08 346.073 317.08Z" fill="black"/>
<path d="M278.643 212.182V218H277.939V212.182H278.643ZM279.965 218V213.636H280.613V214.295H280.658C280.738 214.08 280.882 213.904 281.09 213.77C281.299 213.635 281.533 213.568 281.795 213.568C281.844 213.568 281.906 213.569 281.979 213.571C282.053 213.573 282.109 213.576 282.147 213.58V214.261C282.124 214.256 282.072 214.247 281.991 214.236C281.911 214.223 281.827 214.216 281.738 214.216C281.526 214.216 281.336 214.26 281.17 214.349C281.005 214.437 280.874 214.558 280.778 214.713C280.683 214.866 280.636 215.042 280.636 215.239V218H279.965ZM282.942 218V213.636H283.612V218H282.942ZM283.283 212.909C283.152 212.909 283.039 212.865 282.945 212.776C282.852 212.687 282.805 212.58 282.805 212.455C282.805 212.33 282.852 212.223 282.945 212.134C283.039 212.045 283.152 212 283.283 212C283.413 212 283.525 212.045 283.618 212.134C283.713 212.223 283.76 212.33 283.76 212.455C283.76 212.58 283.713 212.687 283.618 212.776C283.525 212.865 283.413 212.909 283.283 212.909ZM287.931 214.614L287.329 214.784C287.291 214.684 287.235 214.586 287.161 214.491C287.089 214.395 286.991 214.315 286.866 214.253C286.741 214.19 286.581 214.159 286.386 214.159C286.119 214.159 285.896 214.221 285.718 214.344C285.542 214.465 285.454 214.619 285.454 214.807C285.454 214.973 285.514 215.105 285.636 215.202C285.757 215.298 285.946 215.379 286.204 215.443L286.852 215.602C287.242 215.697 287.532 215.842 287.724 216.037C287.915 216.23 288.011 216.479 288.011 216.784C288.011 217.034 287.939 217.258 287.795 217.455C287.653 217.652 287.454 217.807 287.198 217.92C286.942 218.034 286.645 218.091 286.306 218.091C285.861 218.091 285.493 217.994 285.201 217.801C284.909 217.608 284.725 217.326 284.647 216.955L285.283 216.795C285.344 217.03 285.459 217.206 285.627 217.324C285.798 217.441 286.02 217.5 286.295 217.5C286.607 217.5 286.855 217.434 287.039 217.301C287.225 217.167 287.317 217.006 287.317 216.818C287.317 216.667 287.264 216.54 287.158 216.438C287.052 216.333 286.889 216.256 286.67 216.205L285.942 216.034C285.543 215.939 285.249 215.793 285.062 215.594C284.876 215.393 284.783 215.142 284.783 214.841C284.783 214.595 284.853 214.377 284.991 214.188C285.131 213.998 285.321 213.849 285.562 213.741C285.804 213.634 286.079 213.58 286.386 213.58C286.817 213.58 287.156 213.674 287.403 213.864C287.651 214.053 287.827 214.303 287.931 214.614ZM291.361 218V212.182H292.065V214.773H295.168V212.182H295.872V218H295.168V215.398H292.065V218H291.361ZM299.942 216.216V213.636H300.612V218H299.942V217.261H299.896C299.794 217.483 299.635 217.671 299.419 217.827C299.203 217.98 298.93 218.057 298.601 218.057C298.328 218.057 298.086 217.997 297.874 217.878C297.661 217.757 297.495 217.575 297.374 217.332C297.252 217.088 297.192 216.78 297.192 216.409V213.636H297.862V216.364C297.862 216.682 297.951 216.936 298.129 217.125C298.309 217.314 298.538 217.409 298.817 217.409C298.983 217.409 299.153 217.366 299.325 217.281C299.5 217.196 299.645 217.065 299.763 216.889C299.882 216.713 299.942 216.489 299.942 216.216ZM303.602 219.727C303.278 219.727 302.999 219.686 302.766 219.602C302.533 219.521 302.339 219.413 302.184 219.278C302.031 219.146 301.908 219.004 301.817 218.852L302.352 218.477C302.412 218.557 302.489 218.648 302.582 218.75C302.674 218.854 302.801 218.944 302.962 219.02C303.125 219.098 303.338 219.136 303.602 219.136C303.954 219.136 304.245 219.051 304.474 218.881C304.703 218.71 304.817 218.443 304.817 218.08V217.193H304.761C304.711 217.273 304.641 217.371 304.55 217.489C304.461 217.604 304.333 217.707 304.164 217.798C303.997 217.887 303.772 217.932 303.488 217.932C303.136 217.932 302.819 217.848 302.539 217.682C302.261 217.515 302.04 217.273 301.877 216.955C301.716 216.636 301.636 216.25 301.636 215.795C301.636 215.348 301.714 214.959 301.871 214.628C302.029 214.295 302.247 214.037 302.528 213.855C302.808 213.671 303.132 213.58 303.499 213.58C303.783 213.58 304.009 213.627 304.175 213.722C304.344 213.814 304.473 213.92 304.562 214.04C304.653 214.157 304.723 214.254 304.772 214.33H304.84V213.636H305.488V218.125C305.488 218.5 305.403 218.805 305.232 219.04C305.064 219.277 304.836 219.45 304.55 219.56C304.266 219.671 303.95 219.727 303.602 219.727ZM303.579 217.33C303.848 217.33 304.075 217.268 304.261 217.145C304.446 217.022 304.587 216.845 304.684 216.614C304.781 216.383 304.829 216.106 304.829 215.784C304.829 215.47 304.781 215.192 304.687 214.952C304.592 214.711 304.452 214.523 304.266 214.386C304.081 214.25 303.852 214.182 303.579 214.182C303.295 214.182 303.058 214.254 302.869 214.398C302.681 214.542 302.54 214.735 302.445 214.977C302.353 215.22 302.306 215.489 302.306 215.784C302.306 216.087 302.353 216.355 302.448 216.588C302.545 216.819 302.687 217.001 302.874 217.134C303.064 217.264 303.299 217.33 303.579 217.33ZM307.386 215.375V218H306.715V212.182H307.386V214.318H307.442C307.545 214.093 307.698 213.914 307.903 213.781C308.109 213.647 308.384 213.58 308.727 213.58C309.024 213.58 309.284 213.639 309.508 213.759C309.731 213.876 309.905 214.057 310.028 214.301C310.153 214.544 310.215 214.852 310.215 215.227V218H309.545V215.273C309.545 214.926 309.455 214.658 309.275 214.469C309.097 214.277 308.85 214.182 308.533 214.182C308.314 214.182 308.117 214.228 307.942 214.321C307.77 214.414 307.634 214.549 307.533 214.727C307.435 214.905 307.386 215.121 307.386 215.375ZM315.726 212.182V218H315.021V212.92H314.987L313.567 213.864V213.148L315.021 212.182H315.726ZM319.445 212.182V218H318.74V212.92H318.706L317.286 213.864V213.148L318.74 212.182H319.445ZM323.186 211.909L321.311 218.875H320.697L322.572 211.909H323.186ZM323.969 218V217.489L325.89 215.386C326.115 215.14 326.301 214.926 326.447 214.744C326.593 214.561 326.701 214.388 326.771 214.227C326.843 214.064 326.879 213.894 326.879 213.716C326.879 213.511 326.829 213.334 326.731 213.185C326.634 213.035 326.502 212.92 326.333 212.838C326.165 212.757 325.975 212.716 325.765 212.716C325.541 212.716 325.346 212.762 325.18 212.855C325.015 212.946 324.887 213.074 324.796 213.239C324.707 213.403 324.663 213.597 324.663 213.818H323.992C323.992 213.477 324.071 213.178 324.228 212.92C324.385 212.663 324.599 212.462 324.87 212.318C325.143 212.174 325.449 212.102 325.788 212.102C326.129 212.102 326.431 212.174 326.694 212.318C326.957 212.462 327.164 212.656 327.313 212.901C327.463 213.145 327.538 213.417 327.538 213.716C327.538 213.93 327.499 214.139 327.421 214.344C327.345 214.546 327.213 214.773 327.023 215.023C326.836 215.271 326.576 215.574 326.242 215.932L324.935 217.33V217.375H327.64V218H323.969ZM330.665 212.102C330.904 212.104 331.143 212.15 331.381 212.239C331.62 212.328 331.838 212.475 332.035 212.682C332.232 212.886 332.39 213.166 332.509 213.52C332.629 213.874 332.688 214.318 332.688 214.852C332.688 215.369 332.639 215.829 332.54 216.23C332.444 216.63 332.304 216.967 332.12 217.241C331.938 217.516 331.717 217.724 331.455 217.866C331.196 218.009 330.902 218.08 330.575 218.08C330.249 218.08 329.958 218.015 329.702 217.886C329.449 217.756 329.24 217.575 329.077 217.344C328.916 217.111 328.813 216.841 328.768 216.534H329.461C329.523 216.801 329.647 217.022 329.833 217.196C330.021 217.368 330.268 217.455 330.575 217.455C331.023 217.455 331.378 217.259 331.637 216.866C331.898 216.474 332.029 215.92 332.029 215.205H331.984C331.878 215.364 331.752 215.501 331.606 215.616C331.46 215.732 331.298 215.821 331.12 215.884C330.942 215.946 330.753 215.977 330.552 215.977C330.219 215.977 329.913 215.895 329.634 215.73C329.358 215.563 329.136 215.335 328.969 215.045C328.805 214.754 328.722 214.42 328.722 214.045C328.722 213.689 328.802 213.364 328.961 213.068C329.122 212.771 329.347 212.534 329.637 212.358C329.929 212.182 330.272 212.097 330.665 212.102ZM330.665 212.727C330.427 212.727 330.212 212.787 330.021 212.906C329.831 213.024 329.681 213.183 329.569 213.384C329.459 213.582 329.404 213.803 329.404 214.045C329.404 214.288 329.457 214.509 329.563 214.707C329.671 214.904 329.818 215.062 330.004 215.179C330.191 215.295 330.404 215.352 330.643 215.352C330.823 215.352 330.99 215.317 331.146 215.247C331.301 215.175 331.436 215.078 331.552 214.955C331.669 214.83 331.761 214.688 331.827 214.531C331.894 214.372 331.927 214.206 331.927 214.034C331.927 213.807 331.872 213.594 331.762 213.395C331.654 213.196 331.504 213.035 331.313 212.912C331.124 212.789 330.908 212.727 330.665 212.727ZM335.874 211.909L333.999 218.875H333.385L335.26 211.909H335.874ZM336.657 218V217.489L338.577 215.386C338.803 215.14 338.988 214.926 339.134 214.744C339.28 214.561 339.388 214.388 339.458 214.227C339.53 214.064 339.566 213.894 339.566 213.716C339.566 213.511 339.517 213.334 339.418 213.185C339.322 213.035 339.189 212.92 339.021 212.838C338.852 212.757 338.663 212.716 338.452 212.716C338.229 212.716 338.034 212.762 337.867 212.855C337.702 212.946 337.575 213.074 337.484 213.239C337.395 213.403 337.35 213.597 337.35 213.818H336.68C336.68 213.477 336.758 213.178 336.915 212.92C337.073 212.663 337.287 212.462 337.558 212.318C337.83 212.174 338.136 212.102 338.475 212.102C338.816 212.102 339.118 212.174 339.381 212.318C339.645 212.462 339.851 212.656 340.001 212.901C340.15 213.145 340.225 213.417 340.225 213.716C340.225 213.93 340.186 214.139 340.109 214.344C340.033 214.546 339.9 214.773 339.711 215.023C339.523 215.271 339.263 215.574 338.93 215.932L337.623 217.33V217.375H340.327V218H336.657ZM343.319 218.08C342.986 218.08 342.685 218.013 342.418 217.881C342.151 217.748 341.937 217.566 341.776 217.335C341.615 217.104 341.527 216.841 341.512 216.545H342.194C342.22 216.809 342.34 217.027 342.552 217.199C342.766 217.369 343.022 217.455 343.319 217.455C343.558 217.455 343.77 217.399 343.955 217.287C344.143 217.175 344.29 217.022 344.396 216.827C344.504 216.63 344.558 216.407 344.558 216.159C344.558 215.905 344.502 215.679 344.39 215.48C344.28 215.279 344.129 215.121 343.935 215.006C343.742 214.89 343.522 214.831 343.273 214.83C343.095 214.828 342.913 214.855 342.725 214.912C342.538 214.967 342.383 215.038 342.262 215.125L341.603 215.045L341.955 212.182H344.978V212.807H342.546L342.342 214.523H342.376C342.495 214.428 342.645 214.349 342.825 214.287C343.004 214.224 343.192 214.193 343.387 214.193C343.743 214.193 344.06 214.278 344.339 214.449C344.619 214.617 344.839 214.848 344.998 215.142C345.159 215.436 345.239 215.771 345.239 216.148C345.239 216.519 345.156 216.85 344.989 217.142C344.825 217.432 344.597 217.661 344.308 217.83C344.018 217.996 343.688 218.08 343.319 218.08Z" fill="black"/>
<path d="M268.025 113.182H268.866L270.843 118.011H270.911L272.888 113.182H273.729V119H273.07V114.58H273.013L271.195 119H270.559L268.741 114.58H268.684V119H268.025V113.182ZM276.824 119.091C276.43 119.091 276.084 118.997 275.787 118.81C275.491 118.622 275.26 118.36 275.094 118.023C274.929 117.686 274.847 117.292 274.847 116.841C274.847 116.386 274.929 115.99 275.094 115.651C275.26 115.312 275.491 115.048 275.787 114.861C276.084 114.673 276.43 114.58 276.824 114.58C277.218 114.58 277.563 114.673 277.858 114.861C278.155 115.048 278.386 115.312 278.551 115.651C278.718 115.99 278.801 116.386 278.801 116.841C278.801 117.292 278.718 117.686 278.551 118.023C278.386 118.36 278.155 118.622 277.858 118.81C277.563 118.997 277.218 119.091 276.824 119.091ZM276.824 118.489C277.123 118.489 277.369 118.412 277.562 118.259C277.756 118.105 277.899 117.903 277.991 117.653C278.084 117.403 278.131 117.133 278.131 116.841C278.131 116.549 278.084 116.277 277.991 116.026C277.899 115.774 277.756 115.57 277.562 115.415C277.369 115.259 277.123 115.182 276.824 115.182C276.525 115.182 276.278 115.259 276.085 115.415C275.892 115.57 275.749 115.774 275.656 116.026C275.563 116.277 275.517 116.549 275.517 116.841C275.517 117.133 275.563 117.403 275.656 117.653C275.749 117.903 275.892 118.105 276.085 118.259C276.278 118.412 276.525 118.489 276.824 118.489ZM280.495 116.375V119H279.825V114.636H280.472V115.318H280.529C280.631 115.097 280.787 114.919 280.995 114.784C281.203 114.648 281.472 114.58 281.802 114.58C282.097 114.58 282.356 114.64 282.577 114.761C282.799 114.881 282.971 115.062 283.094 115.307C283.218 115.549 283.279 115.856 283.279 116.227V119H282.609V116.273C282.609 115.93 282.52 115.663 282.342 115.472C282.164 115.278 281.919 115.182 281.609 115.182C281.395 115.182 281.203 115.228 281.035 115.321C280.868 115.414 280.737 115.549 280.64 115.727C280.543 115.905 280.495 116.121 280.495 116.375ZM284.504 119V114.636H285.175V119H284.504ZM284.845 113.909C284.714 113.909 284.602 113.865 284.507 113.776C284.414 113.687 284.368 113.58 284.368 113.455C284.368 113.33 284.414 113.223 284.507 113.134C284.602 113.045 284.714 113 284.845 113C284.976 113 285.088 113.045 285.18 113.134C285.275 113.223 285.322 113.33 285.322 113.455C285.322 113.58 285.275 113.687 285.18 113.776C285.088 113.865 284.976 113.909 284.845 113.909ZM288.175 119.091C287.766 119.091 287.414 118.994 287.119 118.801C286.823 118.608 286.596 118.342 286.437 118.003C286.278 117.664 286.198 117.277 286.198 116.841C286.198 116.398 286.28 116.007 286.442 115.668C286.607 115.327 286.836 115.061 287.13 114.869C287.425 114.676 287.77 114.58 288.164 114.58C288.471 114.58 288.747 114.636 288.994 114.75C289.24 114.864 289.442 115.023 289.599 115.227C289.756 115.432 289.853 115.67 289.891 115.943H289.221C289.17 115.744 289.056 115.568 288.88 115.415C288.706 115.259 288.471 115.182 288.175 115.182C287.914 115.182 287.685 115.25 287.488 115.386C287.293 115.521 287.14 115.711 287.031 115.957C286.923 116.202 286.869 116.489 286.869 116.818C286.869 117.155 286.922 117.449 287.028 117.699C287.136 117.949 287.287 118.143 287.482 118.281C287.679 118.42 287.91 118.489 288.175 118.489C288.35 118.489 288.508 118.458 288.65 118.398C288.792 118.337 288.912 118.25 289.011 118.136C289.109 118.023 289.179 117.886 289.221 117.727H289.891C289.853 117.985 289.76 118.217 289.61 118.423C289.462 118.628 289.266 118.791 289.022 118.912C288.78 119.031 288.497 119.091 288.175 119.091ZM292.156 119.102C291.879 119.102 291.628 119.05 291.403 118.946C291.177 118.84 290.998 118.688 290.866 118.489C290.733 118.288 290.667 118.045 290.667 117.761C290.667 117.511 290.716 117.309 290.815 117.153C290.913 116.996 291.045 116.873 291.21 116.784C291.374 116.695 291.556 116.629 291.755 116.585C291.956 116.54 292.157 116.504 292.36 116.477C292.625 116.443 292.84 116.418 293.005 116.401C293.172 116.382 293.293 116.35 293.369 116.307C293.446 116.263 293.485 116.187 293.485 116.08V116.057C293.485 115.777 293.408 115.559 293.255 115.403C293.103 115.248 292.873 115.17 292.565 115.17C292.245 115.17 291.994 115.241 291.812 115.381C291.63 115.521 291.502 115.67 291.428 115.83L290.792 115.602C290.906 115.337 291.057 115.131 291.246 114.983C291.438 114.833 291.646 114.729 291.871 114.67C292.099 114.61 292.322 114.58 292.542 114.58C292.682 114.58 292.843 114.597 293.025 114.631C293.209 114.663 293.386 114.73 293.556 114.832C293.728 114.935 293.871 115.089 293.985 115.295C294.099 115.502 294.156 115.778 294.156 116.125V119H293.485V118.409H293.451C293.406 118.504 293.33 118.605 293.224 118.713C293.118 118.821 292.977 118.913 292.8 118.989C292.624 119.064 292.409 119.102 292.156 119.102ZM292.258 118.5C292.523 118.5 292.746 118.448 292.928 118.344C293.112 118.24 293.25 118.105 293.343 117.94C293.438 117.776 293.485 117.602 293.485 117.42V116.807C293.457 116.841 293.394 116.872 293.298 116.901C293.203 116.927 293.093 116.951 292.968 116.972C292.845 116.991 292.725 117.008 292.607 117.023C292.492 117.036 292.398 117.047 292.326 117.057C292.152 117.08 291.989 117.116 291.837 117.168C291.688 117.217 291.567 117.292 291.474 117.392C291.383 117.491 291.337 117.625 291.337 117.795C291.337 118.028 291.424 118.205 291.596 118.324C291.77 118.441 291.991 118.5 292.258 118.5ZM297.72 119V113.182H298.425V118.375H301.129V119H297.72ZM303.413 119.102C303.137 119.102 302.886 119.05 302.661 118.946C302.435 118.84 302.256 118.688 302.124 118.489C301.991 118.288 301.925 118.045 301.925 117.761C301.925 117.511 301.974 117.309 302.072 117.153C302.171 116.996 302.303 116.873 302.467 116.784C302.632 116.695 302.814 116.629 303.013 116.585C303.214 116.54 303.415 116.504 303.618 116.477C303.883 116.443 304.098 116.418 304.263 116.401C304.429 116.382 304.551 116.35 304.626 116.307C304.704 116.263 304.743 116.187 304.743 116.08V116.057C304.743 115.777 304.666 115.559 304.513 115.403C304.361 115.248 304.131 115.17 303.822 115.17C303.502 115.17 303.251 115.241 303.07 115.381C302.888 115.521 302.76 115.67 302.686 115.83L302.05 115.602C302.163 115.337 302.315 115.131 302.504 114.983C302.696 114.833 302.904 114.729 303.129 114.67C303.357 114.61 303.58 114.58 303.8 114.58C303.94 114.58 304.101 114.597 304.283 114.631C304.466 114.663 304.643 114.73 304.814 114.832C304.986 114.935 305.129 115.089 305.243 115.295C305.357 115.502 305.413 115.778 305.413 116.125V119H304.743V118.409H304.709C304.663 118.504 304.588 118.605 304.482 118.713C304.375 118.821 304.234 118.913 304.058 118.989C303.882 119.064 303.667 119.102 303.413 119.102ZM303.516 118.5C303.781 118.5 304.004 118.448 304.186 118.344C304.37 118.24 304.508 118.105 304.601 117.94C304.696 117.776 304.743 117.602 304.743 117.42V116.807C304.714 116.841 304.652 116.872 304.555 116.901C304.461 116.927 304.351 116.951 304.226 116.972C304.103 116.991 303.982 117.008 303.865 117.023C303.75 117.036 303.656 117.047 303.584 117.057C303.41 117.08 303.247 117.116 303.095 117.168C302.946 117.217 302.824 117.292 302.732 117.392C302.641 117.491 302.595 117.625 302.595 117.795C302.595 118.028 302.681 118.205 302.854 118.324C303.028 118.441 303.249 118.5 303.516 118.5ZM309.728 115.614L309.126 115.784C309.088 115.684 309.032 115.586 308.958 115.491C308.886 115.395 308.788 115.315 308.663 115.253C308.538 115.19 308.378 115.159 308.183 115.159C307.915 115.159 307.693 115.221 307.515 115.344C307.339 115.465 307.251 115.619 307.251 115.807C307.251 115.973 307.311 116.105 307.433 116.202C307.554 116.298 307.743 116.379 308.001 116.443L308.648 116.602C309.039 116.697 309.329 116.842 309.521 117.037C309.712 117.23 309.808 117.479 309.808 117.784C309.808 118.034 309.736 118.258 309.592 118.455C309.45 118.652 309.251 118.807 308.995 118.92C308.739 119.034 308.442 119.091 308.103 119.091C307.658 119.091 307.29 118.994 306.998 118.801C306.706 118.608 306.522 118.326 306.444 117.955L307.08 117.795C307.141 118.03 307.255 118.206 307.424 118.324C307.594 118.441 307.817 118.5 308.092 118.5C308.404 118.5 308.652 118.434 308.836 118.301C309.022 118.167 309.114 118.006 309.114 117.818C309.114 117.667 309.061 117.54 308.955 117.438C308.849 117.333 308.686 117.256 308.467 117.205L307.739 117.034C307.34 116.939 307.046 116.793 306.859 116.594C306.673 116.393 306.58 116.142 306.58 115.841C306.58 115.595 306.649 115.377 306.788 115.188C306.928 114.998 307.118 114.849 307.359 114.741C307.601 114.634 307.876 114.58 308.183 114.58C308.614 114.58 308.953 114.674 309.2 114.864C309.448 115.053 309.624 115.303 309.728 115.614ZM313.908 115.614L313.305 115.784C313.268 115.684 313.212 115.586 313.138 115.491C313.066 115.395 312.967 115.315 312.842 115.253C312.717 115.19 312.557 115.159 312.362 115.159C312.095 115.159 311.873 115.221 311.695 115.344C311.518 115.465 311.43 115.619 311.43 115.807C311.43 115.973 311.491 116.105 311.612 116.202C311.733 116.298 311.923 116.379 312.18 116.443L312.828 116.602C313.218 116.697 313.509 116.842 313.7 117.037C313.892 117.23 313.987 117.479 313.987 117.784C313.987 118.034 313.915 118.258 313.771 118.455C313.629 118.652 313.43 118.807 313.175 118.92C312.919 119.034 312.622 119.091 312.283 119.091C311.838 119.091 311.469 118.994 311.178 118.801C310.886 118.608 310.701 118.326 310.624 117.955L311.26 117.795C311.321 118.03 311.435 118.206 311.604 118.324C311.774 118.441 311.997 118.5 312.271 118.5C312.584 118.5 312.832 118.434 313.016 118.301C313.201 118.167 313.294 118.006 313.294 117.818C313.294 117.667 313.241 117.54 313.135 117.438C313.029 117.333 312.866 117.256 312.646 117.205L311.919 117.034C311.519 116.939 311.226 116.793 311.038 116.594C310.853 116.393 310.76 116.142 310.76 115.841C310.76 115.595 310.829 115.377 310.967 115.188C311.107 114.998 311.298 114.849 311.538 114.741C311.781 114.634 312.055 114.58 312.362 114.58C312.794 114.58 313.133 114.674 313.379 114.864C313.627 115.053 313.804 115.303 313.908 115.614ZM316.826 119.091C316.406 119.091 316.043 118.998 315.738 118.812C315.435 118.625 315.201 118.364 315.036 118.028C314.873 117.691 314.792 117.299 314.792 116.852C314.792 116.405 314.873 116.011 315.036 115.67C315.201 115.328 315.43 115.061 315.724 114.869C316.019 114.676 316.364 114.58 316.758 114.58C316.985 114.58 317.21 114.617 317.431 114.693C317.653 114.769 317.854 114.892 318.036 115.062C318.218 115.231 318.363 115.455 318.471 115.733C318.579 116.011 318.633 116.354 318.633 116.761V117.045H315.269V116.466H317.951C317.951 116.22 317.902 116 317.803 115.807C317.707 115.614 317.568 115.461 317.388 115.349C317.21 115.238 317 115.182 316.758 115.182C316.491 115.182 316.26 115.248 316.065 115.381C315.871 115.511 315.723 115.682 315.619 115.892C315.514 116.102 315.462 116.328 315.462 116.568V116.955C315.462 117.284 315.519 117.563 315.633 117.793C315.748 118.02 315.908 118.193 316.113 118.312C316.317 118.43 316.555 118.489 316.826 118.489C317.002 118.489 317.161 118.464 317.303 118.415C317.447 118.364 317.571 118.288 317.675 118.188C317.78 118.085 317.86 117.958 317.917 117.807L318.565 117.989C318.496 118.208 318.382 118.402 318.221 118.568C318.06 118.733 317.861 118.862 317.624 118.955C317.388 119.045 317.121 119.091 316.826 119.091ZM319.653 119V114.636H320.3V115.295H320.346C320.425 115.08 320.569 114.904 320.778 114.77C320.986 114.635 321.221 114.568 321.482 114.568C321.531 114.568 321.593 114.569 321.667 114.571C321.741 114.573 321.797 114.576 321.835 114.58V115.261C321.812 115.256 321.76 115.247 321.678 115.236C321.599 115.223 321.514 115.216 321.425 115.216C321.213 115.216 321.024 115.26 320.857 115.349C320.692 115.437 320.562 115.558 320.465 115.713C320.371 115.866 320.323 116.042 320.323 116.239V119H319.653ZM326.913 113.182V119H326.209V113.92H326.175L324.754 114.864V114.148L326.209 113.182H326.913ZM330.632 113.182V119H329.928V113.92H329.893L328.473 114.864V114.148L329.928 113.182H330.632ZM334.374 112.909L332.499 119.875H331.885L333.76 112.909H334.374ZM335.157 119V118.489L337.077 116.386C337.303 116.14 337.488 115.926 337.634 115.744C337.78 115.561 337.888 115.388 337.958 115.227C338.03 115.064 338.066 114.894 338.066 114.716C338.066 114.511 338.017 114.334 337.918 114.185C337.822 114.035 337.689 113.92 337.521 113.838C337.352 113.757 337.163 113.716 336.952 113.716C336.729 113.716 336.534 113.762 336.367 113.855C336.202 113.946 336.075 114.074 335.984 114.239C335.895 114.403 335.85 114.597 335.85 114.818H335.18C335.18 114.477 335.258 114.178 335.415 113.92C335.573 113.663 335.787 113.462 336.058 113.318C336.33 113.174 336.636 113.102 336.975 113.102C337.316 113.102 337.618 113.174 337.881 113.318C338.145 113.462 338.351 113.656 338.501 113.901C338.65 114.145 338.725 114.417 338.725 114.716C338.725 114.93 338.686 115.139 338.609 115.344C338.533 115.546 338.4 115.773 338.211 116.023C338.023 116.271 337.763 116.574 337.43 116.932L336.123 118.33V118.375H338.827V119H335.157ZM342.046 113.182V119H341.342V113.92H341.308L339.887 114.864V114.148L341.342 113.182H342.046ZM345.788 112.909L343.913 119.875H343.299L345.174 112.909H345.788ZM346.571 119V118.489L348.491 116.386C348.717 116.14 348.902 115.926 349.048 115.744C349.194 115.561 349.302 115.388 349.372 115.227C349.444 115.064 349.48 114.894 349.48 114.716C349.48 114.511 349.431 114.334 349.332 114.185C349.236 114.035 349.103 113.92 348.935 113.838C348.766 113.757 348.577 113.716 348.366 113.716C348.143 113.716 347.948 113.762 347.781 113.855C347.616 113.946 347.489 114.074 347.398 114.239C347.309 114.403 347.264 114.597 347.264 114.818H346.594C346.594 114.477 346.672 114.178 346.83 113.92C346.987 113.663 347.201 113.462 347.472 113.318C347.744 113.174 348.05 113.102 348.389 113.102C348.73 113.102 349.032 113.174 349.295 113.318C349.559 113.462 349.765 113.656 349.915 113.901C350.064 114.145 350.139 114.417 350.139 114.716C350.139 114.93 350.1 115.139 350.023 115.344C349.947 115.546 349.814 115.773 349.625 116.023C349.438 116.271 349.177 116.574 348.844 116.932L347.537 118.33V118.375H350.241V119H346.571ZM353.233 119.08C352.9 119.08 352.599 119.013 352.332 118.881C352.065 118.748 351.851 118.566 351.69 118.335C351.529 118.104 351.441 117.841 351.426 117.545H352.108C352.134 117.809 352.254 118.027 352.466 118.199C352.68 118.369 352.936 118.455 353.233 118.455C353.472 118.455 353.684 118.399 353.869 118.287C354.057 118.175 354.204 118.022 354.31 117.827C354.418 117.63 354.472 117.407 354.472 117.159C354.472 116.905 354.416 116.679 354.304 116.48C354.194 116.279 354.043 116.121 353.849 116.006C353.656 115.89 353.436 115.831 353.188 115.83C353.009 115.828 352.827 115.855 352.639 115.912C352.452 115.967 352.297 116.038 352.176 116.125L351.517 116.045L351.869 113.182H354.892V113.807H352.46L352.256 115.523H352.29C352.409 115.428 352.559 115.349 352.739 115.287C352.919 115.224 353.106 115.193 353.301 115.193C353.657 115.193 353.974 115.278 354.253 115.449C354.533 115.617 354.753 115.848 354.912 116.142C355.073 116.436 355.153 116.771 355.153 117.148C355.153 117.519 355.07 117.85 354.903 118.142C354.739 118.432 354.511 118.661 354.222 118.83C353.932 118.996 353.602 119.08 353.233 119.08Z" fill="black"/>
<path d="M108.33 19.6307V16.8182H127.967V19.6307H119.734V43H116.563V19.6307H108.33ZM132.86 43V16.8182H136.03V28.4773H149.991V16.8182H153.161V43H149.991V31.2898H136.03V43H132.86ZM159.508 43V16.8182H175.309V19.6307H162.679V28.4773H174.491V31.2898H162.679V40.1875H175.514V43H159.508ZM191.149 16.8182H194.933L203.831 38.5511H204.138L213.035 16.8182H216.819V43H213.854V23.108H213.598L205.416 43H202.552L194.371 23.108H194.115V43H191.149V16.8182ZM245.267 29.9091C245.267 32.6705 244.769 35.0568 243.771 37.0682C242.774 39.0795 241.406 40.6307 239.668 41.7216C237.929 42.8125 235.943 43.358 233.71 43.358C231.477 43.358 229.492 42.8125 227.753 41.7216C226.014 40.6307 224.646 39.0795 223.649 37.0682C222.652 35.0568 222.154 32.6705 222.154 29.9091C222.154 27.1477 222.652 24.7614 223.649 22.75C224.646 20.7386 226.014 19.1875 227.753 18.0966C229.492 17.0057 231.477 16.4602 233.71 16.4602C235.943 16.4602 237.929 17.0057 239.668 18.0966C241.406 19.1875 242.774 20.7386 243.771 22.75C244.769 24.7614 245.267 27.1477 245.267 29.9091ZM242.199 29.9091C242.199 27.642 241.82 25.7287 241.061 24.169C240.311 22.6094 239.293 21.429 238.006 20.6278C236.727 19.8267 235.296 19.4261 233.71 19.4261C232.125 19.4261 230.689 19.8267 229.402 20.6278C228.124 21.429 227.105 22.6094 226.347 24.169C225.597 25.7287 225.222 27.642 225.222 29.9091C225.222 32.1761 225.597 34.0895 226.347 35.6491C227.105 37.2088 228.124 38.3892 229.402 39.1903C230.689 39.9915 232.125 40.392 233.71 40.392C235.296 40.392 236.727 39.9915 238.006 39.1903C239.293 38.3892 240.311 37.2088 241.061 35.6491C241.82 34.0895 242.199 32.1761 242.199 29.9091ZM250.598 43V16.8182H259.445C261.49 16.8182 263.169 17.1676 264.482 17.8665C265.794 18.5568 266.766 19.5071 267.396 20.7173C268.027 21.9276 268.343 23.304 268.343 24.8466C268.343 26.3892 268.027 27.7571 267.396 28.9503C266.766 30.1435 265.798 31.081 264.494 31.7628C263.191 32.4361 261.524 32.7727 259.496 32.7727H252.337V29.9091H259.394C260.791 29.9091 261.916 29.7045 262.769 29.2955C263.629 28.8864 264.252 28.3068 264.635 27.5568C265.027 26.7983 265.223 25.8949 265.223 24.8466C265.223 23.7983 265.027 22.8821 264.635 22.098C264.243 21.3139 263.617 20.7088 262.756 20.2827C261.895 19.848 260.757 19.6307 259.343 19.6307H253.769V43H250.598ZM262.922 31.2386L269.365 43H265.683L259.343 31.2386H262.922ZM291.523 25C291.242 24.1392 290.871 23.3679 290.411 22.6861C289.959 21.9957 289.418 21.4077 288.787 20.9219C288.165 20.4361 287.458 20.0653 286.665 19.8097C285.873 19.554 285.003 19.4261 284.057 19.4261C282.506 19.4261 281.096 19.8267 279.826 20.6278C278.556 21.429 277.546 22.6094 276.796 24.169C276.046 25.7287 275.671 27.642 275.671 29.9091C275.671 32.1761 276.05 34.0895 276.809 35.6491C277.567 37.2088 278.594 38.3892 279.89 39.1903C281.185 39.9915 282.643 40.392 284.262 40.392C285.762 40.392 287.083 40.0724 288.225 39.4332C289.376 38.7855 290.27 37.8736 290.91 36.6974C291.557 35.5128 291.881 34.1193 291.881 32.517L292.853 32.7216H284.978V29.9091H294.949V32.7216C294.949 34.8778 294.489 36.7528 293.569 38.3466C292.657 39.9403 291.395 41.1761 289.785 42.054C288.182 42.9233 286.341 43.358 284.262 43.358C281.944 43.358 279.907 42.8125 278.151 41.7216C276.404 40.6307 275.04 39.0795 274.06 37.0682C273.089 35.0568 272.603 32.6705 272.603 29.9091C272.603 27.8381 272.88 25.9759 273.434 24.3224C273.996 22.6605 274.789 21.2457 275.812 20.0781C276.834 18.9105 278.045 18.0156 279.442 17.3935C280.84 16.7713 282.378 16.4602 284.057 16.4602C285.438 16.4602 286.725 16.669 287.918 17.0866C289.12 17.4957 290.189 18.0795 291.127 18.8381C292.073 19.5881 292.861 20.4872 293.492 21.5355C294.123 22.5753 294.557 23.7301 294.796 25H291.523ZM317.561 16.8182H320.732V34.1534C320.732 35.9432 320.31 37.5412 319.466 38.9474C318.631 40.3452 317.45 41.4489 315.925 42.2585C314.399 43.0597 312.61 43.4602 310.556 43.4602C308.502 43.4602 306.712 43.0597 305.186 42.2585C303.661 41.4489 302.476 40.3452 301.632 38.9474C300.797 37.5412 300.379 35.9432 300.379 34.1534V16.8182H303.55V33.8977C303.55 35.1761 303.831 36.3139 304.394 37.3111C304.956 38.2997 305.757 39.0795 306.797 39.6506C307.845 40.2131 309.098 40.4943 310.556 40.4943C312.013 40.4943 313.266 40.2131 314.314 39.6506C315.362 39.0795 316.164 38.2997 316.718 37.3111C317.28 36.3139 317.561 35.1761 317.561 33.8977V16.8182ZM327.063 43V16.8182H342.864V19.6307H330.233V28.4773H342.046V31.2898H330.233V40.1875H343.069V43H327.063Z" fill="black"/>
</svg>
