<svg width="458" height="413" viewBox="0 0 458 413" fill="none" xmlns="http://www.w3.org/2000/svg">
<rect width="458" height="413" fill="white"/>
<rect x="149" y="74" width="160" height="339" fill="#D9D9D9"/>
<rect x="202" y="313" width="54" height="100" fill="#393838"/>
<rect x="224" y="79" width="10" height="48" fill="#FF0000"/>
<rect x="253" y="98" width="10" height="48" transform="rotate(90 253 98)" fill="#FF0000"/>
<rect x="163" y="221" width="42" height="42" fill="white"/>
<rect x="163" y="151" width="42" height="42" fill="white"/>
<rect x="253" y="151" width="42" height="42" fill="white"/>
<rect x="253" y="221" width="42" height="42" fill="white"/>
<rect x="269.625" y="151" width="8.75" height="42" fill="#0B0B0B"/>
<rect x="295" y="167.625" width="8.75" height="42" transform="rotate(90 295 167.625)" fill="#0B0B0B"/>
<rect x="179.625" y="151" width="8.75" height="42" fill="#0B0B0B"/>
<rect x="205" y="167.625" width="8.75" height="42" transform="rotate(90 205 167.625)" fill="#0B0B0B"/>
<rect x="179.625" y="221" width="8.75" height="42" fill="#0B0B0B"/>
<rect x="205" y="237.625" width="8.75" height="42" transform="rotate(90 205 237.625)" fill="#0B0B0B"/>
<rect x="269.625" y="221" width="8.75" height="42" fill="#0B0B0B"/>
<rect x="295" y="237.625" width="8.75" height="42" transform="rotate(90 295 237.625)" fill="#0B0B0B"/>
<path d="M190.932 292V283.273H193.983C194.591 283.273 195.092 283.378 195.487 283.588C195.882 283.795 196.176 284.075 196.369 284.428C196.563 284.777 196.659 285.165 196.659 285.591C196.659 285.966 196.592 286.276 196.459 286.52C196.328 286.764 196.155 286.957 195.939 287.099C195.726 287.241 195.494 287.347 195.244 287.415V287.5C195.511 287.517 195.78 287.611 196.05 287.781C196.32 287.952 196.545 288.196 196.727 288.514C196.909 288.832 197 289.222 197 289.682C197 290.119 196.901 290.513 196.702 290.862C196.503 291.212 196.189 291.489 195.76 291.693C195.331 291.898 194.773 292 194.085 292H190.932ZM191.989 291.062H194.085C194.776 291.062 195.266 290.929 195.555 290.662C195.848 290.392 195.994 290.065 195.994 289.682C195.994 289.386 195.919 289.114 195.768 288.864C195.618 288.611 195.403 288.409 195.125 288.259C194.847 288.105 194.517 288.028 194.136 288.028H191.989V291.062ZM191.989 287.108H193.949C194.267 287.108 194.554 287.045 194.81 286.92C195.068 286.795 195.273 286.619 195.423 286.392C195.577 286.165 195.653 285.898 195.653 285.591C195.653 285.207 195.52 284.882 195.253 284.615C194.986 284.345 194.563 284.21 193.983 284.21H191.989V287.108ZM198.737 292V283.273H199.793V291.062H203.85V292H198.737ZM206.395 292H205.287L208.492 283.273H209.583L212.787 292H211.679L209.071 284.653H209.003L206.395 292ZM206.804 288.591H211.27V289.528H206.804V288.591ZM220.759 286H219.702C219.64 285.696 219.531 285.429 219.374 285.199C219.221 284.969 219.033 284.776 218.812 284.619C218.593 284.46 218.35 284.341 218.083 284.261C217.816 284.182 217.538 284.142 217.248 284.142C216.719 284.142 216.241 284.276 215.812 284.543C215.386 284.81 215.046 285.203 214.793 285.723C214.543 286.243 214.418 286.881 214.418 287.636C214.418 288.392 214.543 289.03 214.793 289.55C215.046 290.07 215.386 290.463 215.812 290.73C216.241 290.997 216.719 291.131 217.248 291.131C217.538 291.131 217.816 291.091 218.083 291.011C218.35 290.932 218.593 290.814 218.812 290.658C219.033 290.499 219.221 290.304 219.374 290.074C219.531 289.841 219.64 289.574 219.702 289.273H220.759C220.68 289.719 220.535 290.118 220.325 290.47C220.114 290.822 219.853 291.122 219.54 291.369C219.228 291.614 218.877 291.8 218.488 291.928C218.102 292.055 217.688 292.119 217.248 292.119C216.504 292.119 215.842 291.938 215.262 291.574C214.683 291.21 214.227 290.693 213.894 290.023C213.562 289.352 213.396 288.557 213.396 287.636C213.396 286.716 213.562 285.92 213.894 285.25C214.227 284.58 214.683 284.062 215.262 283.699C215.842 283.335 216.504 283.153 217.248 283.153C217.688 283.153 218.102 283.217 218.488 283.345C218.877 283.473 219.228 283.661 219.54 283.908C219.853 284.152 220.114 284.45 220.325 284.803C220.535 285.152 220.68 285.551 220.759 286ZM222.467 292V283.273H223.524V287.602H223.626L227.547 283.273H228.927L225.262 287.21L228.927 292H227.649L224.615 287.943L223.524 289.17V292H222.467ZM231.88 292L229.494 283.273H230.568L232.392 290.381H232.477L234.335 283.273H235.528L237.386 290.381H237.471L239.295 283.273H240.369L237.983 292H236.892L234.966 285.045H234.897L232.971 292H231.88ZM248.639 287.636C248.639 288.557 248.473 289.352 248.141 290.023C247.808 290.693 247.352 291.21 246.773 291.574C246.193 291.938 245.531 292.119 244.787 292.119C244.043 292.119 243.381 291.938 242.801 291.574C242.222 291.21 241.766 290.693 241.433 290.023C241.101 289.352 240.935 288.557 240.935 287.636C240.935 286.716 241.101 285.92 241.433 285.25C241.766 284.58 242.222 284.062 242.801 283.699C243.381 283.335 244.043 283.153 244.787 283.153C245.531 283.153 246.193 283.335 246.773 283.699C247.352 284.062 247.808 284.58 248.141 285.25C248.473 285.92 248.639 286.716 248.639 287.636ZM247.616 287.636C247.616 286.881 247.49 286.243 247.237 285.723C246.987 285.203 246.648 284.81 246.219 284.543C245.793 284.276 245.315 284.142 244.787 284.142C244.259 284.142 243.78 284.276 243.351 284.543C242.925 284.81 242.585 285.203 242.332 285.723C242.082 286.243 241.957 286.881 241.957 287.636C241.957 288.392 242.082 289.03 242.332 289.55C242.585 290.07 242.925 290.463 243.351 290.73C243.78 290.997 244.259 291.131 244.787 291.131C245.315 291.131 245.793 290.997 246.219 290.73C246.648 290.463 246.987 290.07 247.237 289.55C247.49 289.03 247.616 288.392 247.616 287.636ZM257.78 287.636C257.78 288.557 257.614 289.352 257.281 290.023C256.949 290.693 256.493 291.21 255.913 291.574C255.334 291.938 254.672 292.119 253.928 292.119C253.183 292.119 252.521 291.938 251.942 291.574C251.362 291.21 250.906 290.693 250.574 290.023C250.241 289.352 250.075 288.557 250.075 287.636C250.075 286.716 250.241 285.92 250.574 285.25C250.906 284.58 251.362 284.062 251.942 283.699C252.521 283.335 253.183 283.153 253.928 283.153C254.672 283.153 255.334 283.335 255.913 283.699C256.493 284.062 256.949 284.58 257.281 285.25C257.614 285.92 257.78 286.716 257.78 287.636ZM256.757 287.636C256.757 286.881 256.631 286.243 256.378 285.723C256.128 285.203 255.788 284.81 255.359 284.543C254.933 284.276 254.456 284.142 253.928 284.142C253.399 284.142 252.92 284.276 252.491 284.543C252.065 284.81 251.726 285.203 251.473 285.723C251.223 286.243 251.098 286.881 251.098 287.636C251.098 288.392 251.223 289.03 251.473 289.55C251.726 290.07 252.065 290.463 252.491 290.73C252.92 290.997 253.399 291.131 253.928 291.131C254.456 291.131 254.933 290.997 255.359 290.73C255.788 290.463 256.128 290.07 256.378 289.55C256.631 289.03 256.757 288.392 256.757 287.636ZM262.25 292H259.557V283.273H262.369C263.216 283.273 263.94 283.447 264.543 283.797C265.145 284.143 265.607 284.642 265.928 285.293C266.249 285.94 266.409 286.716 266.409 287.619C266.409 288.528 266.247 289.311 265.923 289.967C265.599 290.621 265.128 291.124 264.509 291.476C263.889 291.825 263.136 292 262.25 292ZM260.614 291.062H262.182C262.903 291.062 263.501 290.923 263.976 290.645C264.45 290.366 264.804 289.97 265.037 289.456C265.27 288.942 265.386 288.33 265.386 287.619C265.386 286.915 265.271 286.308 265.041 285.8C264.811 285.288 264.467 284.896 264.01 284.624C263.553 284.348 262.983 284.21 262.301 284.21H260.614V291.062Z" fill="black"/>
</svg>
